<?xml version="1.0" encoding="utf-8" standalone="no"?>
<!DOCTYPE svg PUBLIC "-//W3C//DTD SVG 1.1//EN"
  "http://www.w3.org/Graphics/SVG/1.1/DTD/svg11.dtd">
<svg xmlns:xlink="http://www.w3.org/1999/xlink" width="256.32pt" height="240.181058pt" viewBox="0 0 256.32 240.181058" xmlns="http://www.w3.org/2000/svg" version="1.1">
 <metadata>
  <rdf:RDF xmlns:dc="http://purl.org/dc/elements/1.1/" xmlns:cc="http://creativecommons.org/ns#" xmlns:rdf="http://www.w3.org/1999/02/22-rdf-syntax-ns#">
   <cc:Work>
    <dc:type rdf:resource="http://purl.org/dc/dcmitype/StillImage"/>
    <dc:date>2026-09-15T12:45:03.110072</dc:date>
    <dc:format>image/svg+xml</dc:format>
    <dc:creator>
     <cc:Agent>
      <dc:title>Matplotlib v3.9.3, https://matplotlib.org/</dc:title>
     </cc:Agent>
    </dc:creator>
   </cc:Work>
  </rdf:RDF>
 </metadata>
 <defs>
  <style type="text/css">*{stroke-linejoin: round; stroke-linecap: butt}</style>
 </defs>
 <g id="figure_1">
  <g id="patch_1">
   <path d="M 0 240.181058 
L 256.32 240.181058 
L 256.32 0 
L 0 0 
z
" style="fill: #ffffff"/>
  </g>
  <g id="axes_1">
   <g id="patch_2">
    <path d="M 99.18 187.693058 
L 189.9 187.693058 
L 189.9 8.989058 
L 99.18 8.989058 
z
" style="fill: #ffffff"/>
   </g>
   <g id="LineCollection_1">
    <path d="M 130.113689 29.052431 
L 158.966311 29.052431 
" clip-path="url(#p74f1c99ddd)" style="fill: none; stroke: #efebe2; stroke-width: 6.5"/>
   </g>
   <g id="LineCollection_2">
    <path d="M 126.844594 38.384233 
L 162.235406 38.384233 
" clip-path="url(#p74f1c99ddd)" style="fill: none; stroke: #efebe2; stroke-width: 6.5"/>
   </g>
   <g id="LineCollection_3">
    <path d="M 126.776229 47.716034 
L 162.303771 47.716034 
" clip-path="url(#p74f1c99ddd)" style="fill: none; stroke: #efebe2; stroke-width: 6.5"/>
   </g>
   <g id="LineCollection_4">
    <path d="M 122.507818 57.047836 
L 166.572182 57.047836 
" clip-path="url(#p74f1c99ddd)" style="fill: none; stroke: #efebe2; stroke-width: 6.5"/>
   </g>
   <g id="LineCollection_5">
    <path d="M 100.643226 66.379638 
L 188.436774 66.379638 
" clip-path="url(#p74f1c99ddd)" style="fill: none; stroke: #efebe2; stroke-width: 6.5"/>
   </g>
   <g id="LineCollection_6">
    <path d="M 118.832884 75.711439 
L 170.247116 75.711439 
" clip-path="url(#p74f1c99ddd)" style="fill: none; stroke: #efebe2; stroke-width: 6.5"/>
   </g>
   <g id="LineCollection_7">
    <path d="M 142.441775 99.040943 
L 146.638225 99.040943 
" clip-path="url(#p74f1c99ddd)" style="fill: none; stroke: #efebe2; stroke-width: 6.5"/>
   </g>
   <g id="LineCollection_8">
    <path d="M 141.831599 108.372745 
L 147.248401 108.372745 
" clip-path="url(#p74f1c99ddd)" style="fill: none; stroke: #efebe2; stroke-width: 6.5"/>
   </g>
   <g id="LineCollection_9">
    <path d="M 133.640657 131.702248 
L 155.439343 131.702248 
" clip-path="url(#p74f1c99ddd)" style="fill: none; stroke: #efebe2; stroke-width: 6.5"/>
   </g>
   <g id="LineCollection_10">
    <path d="M 129.481612 155.031752 
L 159.598388 155.031752 
" clip-path="url(#p74f1c99ddd)" style="fill: none; stroke: #efebe2; stroke-width: 6.5"/>
   </g>
   <g id="LineCollection_11">
    <path d="M 135.460677 178.361256 
L 153.619323 178.361256 
" clip-path="url(#p74f1c99ddd)" style="fill: none; stroke: #efebe2; stroke-width: 6.5"/>
   </g>
   <g id="matplotlib.axis_1">
    <g id="xtick_1">
     <g id="line2d_1">
      <defs>
       <path id="mb8bb4b2a61" d="M 0 0 
L 0 3.5 
" style="stroke: #898781; stroke-width: 0.6"/>
      </defs>
      <g>
       <use xlink:href="#mb8bb4b2a61" x="107.959355" y="187.693058" style="fill: #898781; stroke: #898781; stroke-width: 0.6"/>
      </g>
     </g>
     <g id="text_1">
      <!-- -0.5 -->
      <g style="fill: #898781" transform="translate(101.288456 200.048527) scale(0.075 -0.075)">
       <defs>
        <path id="HelveticaNeue-2d" d="M 320 2035 
L 320 1523 
L 2170 1523 
L 2170 2035 
L 320 2035 
z
" transform="scale(0.015625)"/>
        <path id="HelveticaNeue-30" d="M 845 2234 
Q 845 2400 848 2601 
Q 851 2803 880 3004 
Q 909 3206 963 3398 
Q 1018 3590 1123 3734 
Q 1229 3878 1389 3968 
Q 1549 4058 1779 4058 
Q 2010 4058 2170 3968 
Q 2330 3878 2435 3734 
Q 2541 3590 2595 3398 
Q 2650 3206 2678 3004 
Q 2707 2803 2710 2601 
Q 2714 2400 2714 2234 
Q 2714 1978 2698 1661 
Q 2682 1344 2595 1065 
Q 2509 787 2317 595 
Q 2125 403 1779 403 
Q 1434 403 1242 595 
Q 1050 787 963 1065 
Q 877 1344 861 1661 
Q 845 1978 845 2234 
z
M 269 2227 
Q 269 1978 281 1709 
Q 294 1440 345 1184 
Q 397 928 493 701 
Q 589 474 755 301 
Q 922 128 1174 29 
Q 1427 -70 1779 -70 
Q 2138 -70 2387 29 
Q 2637 128 2803 301 
Q 2970 474 3066 701 
Q 3162 928 3213 1184 
Q 3264 1440 3277 1709 
Q 3290 1978 3290 2227 
Q 3290 2477 3277 2745 
Q 3264 3014 3213 3270 
Q 3162 3526 3066 3756 
Q 2970 3987 2803 4160 
Q 2637 4333 2384 4435 
Q 2131 4538 1779 4538 
Q 1427 4538 1174 4435 
Q 922 4333 755 4160 
Q 589 3987 493 3756 
Q 397 3526 345 3270 
Q 294 3014 281 2745 
Q 269 2477 269 2227 
z
" transform="scale(0.015625)"/>
        <path id="HelveticaNeue-2e" d="M 531 710 
L 531 0 
L 1242 0 
L 1242 710 
L 531 710 
z
" transform="scale(0.015625)"/>
        <path id="HelveticaNeue-35" d="M 3008 3981 
L 3008 4461 
L 768 4461 
L 346 2106 
L 813 2080 
Q 973 2272 1181 2390 
Q 1389 2509 1658 2509 
Q 1888 2509 2077 2432 
Q 2266 2355 2400 2217 
Q 2534 2080 2608 1891 
Q 2682 1702 2682 1478 
Q 2682 1210 2605 1008 
Q 2528 806 2397 672 
Q 2266 538 2090 470 
Q 1914 403 1722 403 
Q 1517 403 1347 464 
Q 1178 525 1053 637 
Q 928 749 854 899 
Q 781 1050 768 1222 
L 224 1222 
Q 230 915 345 672 
Q 461 429 659 265 
Q 858 102 1117 16 
Q 1376 -70 1670 -70 
Q 2067 -70 2364 54 
Q 2662 179 2860 390 
Q 3059 602 3158 874 
Q 3258 1146 3258 1434 
Q 3258 1824 3142 2115 
Q 3027 2406 2828 2601 
Q 2630 2797 2361 2893 
Q 2093 2989 1792 2989 
Q 1562 2989 1328 2909 
Q 1094 2829 947 2662 
L 934 2675 
L 1178 3981 
L 3008 3981 
z
" transform="scale(0.015625)"/>
       </defs>
       <use xlink:href="#HelveticaNeue-2d"/>
       <use xlink:href="#HelveticaNeue-30" x="38.899994"/>
       <use xlink:href="#HelveticaNeue-2e" x="94.499985"/>
       <use xlink:href="#HelveticaNeue-35" x="122.299973"/>
      </g>
     </g>
    </g>
    <g id="xtick_2">
     <g id="line2d_2">
      <g>
       <use xlink:href="#mb8bb4b2a61" x="144.54" y="187.693058" style="fill: #898781; stroke: #898781; stroke-width: 0.6"/>
      </g>
     </g>
     <g id="text_2">
      <!-- 0 -->
      <g style="fill: #898781" transform="translate(142.455234 200.048527) scale(0.075 -0.075)">
       <use xlink:href="#HelveticaNeue-30"/>
      </g>
     </g>
    </g>
    <g id="xtick_3">
     <g id="line2d_3">
      <g>
       <use xlink:href="#mb8bb4b2a61" x="181.120645" y="187.693058" style="fill: #898781; stroke: #898781; stroke-width: 0.6"/>
      </g>
     </g>
     <g id="text_3">
      <!-- +0.5 -->
      <g style="fill: #898781" transform="translate(173.658731 200.048527) scale(0.075 -0.075)">
       <defs>
        <path id="HelveticaNeue-2b" d="M 2138 1837 
L 2138 3238 
L 1702 3238 
L 1702 1837 
L 307 1837 
L 307 1402 
L 1702 1402 
L 1702 0 
L 2138 0 
L 2138 1402 
L 3533 1402 
L 3533 1837 
L 2138 1837 
z
" transform="scale(0.015625)"/>
       </defs>
       <use xlink:href="#HelveticaNeue-2b"/>
       <use xlink:href="#HelveticaNeue-30" x="59.999985"/>
       <use xlink:href="#HelveticaNeue-2e" x="115.599976"/>
       <use xlink:href="#HelveticaNeue-35" x="143.399963"/>
      </g>
     </g>
    </g>
    <g id="text_4">
     <!-- shift in rg with autism -->
     <g style="fill: #52514e" transform="translate(108.944297 210.941495) scale(0.075 -0.075)">
      <defs>
       <path id="HelveticaNeue-73" d="M 742 1043 
L 198 1043 
Q 211 736 326 521 
Q 442 307 634 176 
Q 826 45 1075 -12 
Q 1325 -70 1600 -70 
Q 1850 -70 2102 -22 
Q 2355 26 2556 147 
Q 2758 269 2883 467 
Q 3008 666 3008 966 
Q 3008 1203 2915 1363 
Q 2822 1523 2672 1628 
Q 2522 1734 2326 1798 
Q 2131 1862 1926 1907 
Q 1734 1952 1542 1993 
Q 1350 2035 1196 2096 
Q 1043 2157 944 2249 
Q 845 2342 845 2483 
Q 845 2611 909 2691 
Q 973 2771 1075 2819 
Q 1178 2867 1302 2886 
Q 1427 2906 1549 2906 
Q 1683 2906 1814 2877 
Q 1946 2848 2054 2784 
Q 2163 2720 2233 2614 
Q 2304 2509 2317 2349 
L 2861 2349 
Q 2842 2650 2733 2851 
Q 2624 3053 2441 3171 
Q 2259 3290 2022 3338 
Q 1786 3386 1504 3386 
Q 1286 3386 1065 3331 
Q 845 3277 669 3165 
Q 493 3053 381 2873 
Q 269 2694 269 2445 
Q 269 2125 429 1945 
Q 589 1766 829 1667 
Q 1069 1568 1350 1513 
Q 1632 1459 1872 1392 
Q 2112 1325 2272 1216 
Q 2432 1107 2432 896 
Q 2432 742 2355 643 
Q 2278 544 2160 493 
Q 2042 442 1901 422 
Q 1760 403 1632 403 
Q 1466 403 1309 435 
Q 1152 467 1027 540 
Q 902 614 825 739 
Q 749 864 742 1043 
z
" transform="scale(0.015625)"/>
       <path id="HelveticaNeue-68" d="M 410 4570 
L 410 0 
L 954 0 
L 954 1869 
Q 954 2093 1014 2281 
Q 1075 2470 1196 2611 
Q 1318 2752 1500 2829 
Q 1683 2906 1933 2906 
Q 2246 2906 2425 2726 
Q 2605 2547 2605 2240 
L 2605 0 
L 3149 0 
L 3149 2176 
Q 3149 2445 3094 2665 
Q 3040 2886 2905 3046 
Q 2771 3206 2553 3296 
Q 2336 3386 2010 3386 
Q 1862 3386 1705 3354 
Q 1549 3322 1405 3254 
Q 1261 3187 1145 3081 
Q 1030 2976 966 2822 
L 954 2822 
L 954 4570 
L 410 4570 
z
" transform="scale(0.015625)"/>
       <path id="HelveticaNeue-69" d="M 986 3904 
L 986 4570 
L 442 4570 
L 442 3904 
L 986 3904 
z
M 442 3309 
L 442 0 
L 986 0 
L 986 3309 
L 442 3309 
z
" transform="scale(0.015625)"/>
       <path id="HelveticaNeue-66" d="M 634 2829 
L 634 0 
L 1178 0 
L 1178 2829 
L 1818 2829 
L 1818 3309 
L 1178 3309 
L 1178 3770 
Q 1178 3987 1286 4064 
Q 1395 4141 1594 4141 
Q 1664 4141 1747 4131 
Q 1830 4122 1901 4096 
L 1901 4570 
Q 1824 4595 1725 4608 
Q 1626 4621 1549 4621 
Q 1101 4621 867 4413 
Q 634 4205 634 3802 
L 634 3309 
L 77 3309 
L 77 2829 
L 634 2829 
z
" transform="scale(0.015625)"/>
       <path id="HelveticaNeue-74" d="M 1165 3309 
L 1165 4301 
L 621 4301 
L 621 3309 
L 58 3309 
L 58 2829 
L 621 2829 
L 621 723 
Q 621 493 665 352 
Q 710 211 803 134 
Q 896 58 1046 29 
Q 1197 0 1408 0 
L 1824 0 
L 1824 480 
L 1574 480 
Q 1446 480 1366 489 
Q 1286 499 1241 531 
Q 1197 563 1181 620 
Q 1165 678 1165 774 
L 1165 2829 
L 1824 2829 
L 1824 3309 
L 1165 3309 
z
" transform="scale(0.015625)"/>
       <path id="HelveticaNeue-20" transform="scale(0.015625)"/>
       <path id="HelveticaNeue-6e" d="M 410 3309 
L 410 0 
L 954 0 
L 954 1869 
Q 954 2093 1014 2281 
Q 1075 2470 1196 2611 
Q 1318 2752 1500 2829 
Q 1683 2906 1933 2906 
Q 2246 2906 2425 2726 
Q 2605 2547 2605 2240 
L 2605 0 
L 3149 0 
L 3149 2176 
Q 3149 2445 3094 2665 
Q 3040 2886 2905 3046 
Q 2771 3206 2553 3296 
Q 2336 3386 2010 3386 
Q 1274 3386 934 2784 
L 922 2784 
L 922 3309 
L 410 3309 
z
" transform="scale(0.015625)"/>
       <path id="HelveticaNeue-72" d="M 390 3309 
L 390 0 
L 934 0 
L 934 1472 
Q 934 1792 998 2038 
Q 1062 2285 1203 2457 
Q 1344 2630 1574 2720 
Q 1805 2810 2131 2810 
L 2131 3386 
Q 1690 3398 1402 3206 
Q 1114 3014 915 2611 
L 902 2611 
L 902 3309 
L 390 3309 
z
" transform="scale(0.015625)"/>
       <path id="HelveticaNeue-67" d="M 3264 282 
L 3264 3309 
L 2752 3309 
L 2752 2835 
L 2746 2835 
Q 2598 3110 2336 3248 
Q 2074 3386 1760 3386 
Q 1331 3386 1036 3222 
Q 742 3059 563 2806 
Q 384 2554 307 2243 
Q 230 1933 230 1638 
Q 230 1299 323 995 
Q 416 691 601 464 
Q 787 237 1062 102 
Q 1338 -32 1709 -32 
Q 2029 -32 2313 112 
Q 2598 256 2739 563 
L 2752 563 
L 2752 346 
Q 2752 70 2697 -160 
Q 2643 -390 2521 -553 
Q 2400 -717 2214 -809 
Q 2029 -902 1760 -902 
Q 1626 -902 1478 -873 
Q 1331 -845 1206 -781 
Q 1082 -717 995 -614 
Q 909 -512 902 -365 
L 358 -365 
Q 371 -634 499 -819 
Q 627 -1005 822 -1120 
Q 1018 -1235 1258 -1286 
Q 1498 -1338 1728 -1338 
Q 2522 -1338 2893 -934 
Q 3264 -531 3264 282 
z
M 1741 442 
Q 1472 442 1293 554 
Q 1114 666 1005 848 
Q 896 1030 851 1254 
Q 806 1478 806 1702 
Q 806 1939 860 2156 
Q 915 2374 1033 2540 
Q 1152 2707 1337 2806 
Q 1523 2906 1786 2906 
Q 2042 2906 2221 2803 
Q 2400 2701 2512 2531 
Q 2624 2362 2675 2150 
Q 2726 1939 2726 1722 
Q 2726 1491 2672 1260 
Q 2618 1030 2502 848 
Q 2387 666 2198 554 
Q 2010 442 1741 442 
z
" transform="scale(0.015625)"/>
       <path id="HelveticaNeue-77" d="M 3686 0 
L 4742 3309 
L 4179 3309 
L 3437 602 
L 3424 602 
L 2733 3309 
L 2138 3309 
L 1472 602 
L 1459 602 
L 710 3309 
L 109 3309 
L 1171 0 
L 1760 0 
L 2426 2630 
L 2438 2630 
L 3110 0 
L 3686 0 
z
" transform="scale(0.015625)"/>
       <path id="HelveticaNeue-61" d="M 3341 13 
Q 3200 -70 2950 -70 
Q 2739 -70 2614 48 
Q 2490 166 2490 435 
Q 2266 166 1968 48 
Q 1670 -70 1325 -70 
Q 1101 -70 899 -19 
Q 698 32 550 141 
Q 403 250 316 426 
Q 230 602 230 851 
Q 230 1133 326 1312 
Q 422 1491 579 1603 
Q 736 1715 937 1772 
Q 1139 1830 1350 1869 
Q 1574 1914 1776 1936 
Q 1978 1958 2131 2000 
Q 2285 2042 2374 2122 
Q 2464 2202 2464 2355 
Q 2464 2534 2397 2643 
Q 2330 2752 2224 2809 
Q 2118 2867 1987 2886 
Q 1856 2906 1728 2906 
Q 1382 2906 1152 2774 
Q 922 2643 902 2278 
L 358 2278 
Q 371 2586 486 2797 
Q 602 3008 794 3139 
Q 986 3270 1232 3328 
Q 1478 3386 1760 3386 
Q 1984 3386 2205 3354 
Q 2426 3322 2605 3222 
Q 2784 3123 2893 2944 
Q 3002 2765 3002 2477 
L 3002 774 
Q 3002 582 3024 492 
Q 3046 403 3174 403 
Q 3245 403 3341 435 
L 3341 13 
z
M 2458 1709 
Q 2355 1632 2188 1597 
Q 2022 1562 1840 1539 
Q 1658 1517 1472 1488 
Q 1286 1459 1139 1395 
Q 992 1331 899 1212 
Q 806 1094 806 890 
Q 806 755 860 662 
Q 915 570 1001 512 
Q 1088 454 1203 428 
Q 1318 403 1446 403 
Q 1715 403 1907 476 
Q 2099 550 2220 662 
Q 2342 774 2400 905 
Q 2458 1037 2458 1152 
L 2458 1709 
z
" transform="scale(0.015625)"/>
       <path id="HelveticaNeue-75" d="M 3149 0 
L 3149 3309 
L 2605 3309 
L 2605 1440 
Q 2605 1216 2544 1027 
Q 2483 838 2361 697 
Q 2240 557 2057 480 
Q 1875 403 1626 403 
Q 1312 403 1133 582 
Q 954 762 954 1069 
L 954 3309 
L 410 3309 
L 410 1133 
Q 410 864 464 643 
Q 518 422 652 262 
Q 787 102 1004 16 
Q 1222 -70 1549 -70 
Q 1914 -70 2182 74 
Q 2451 218 2624 525 
L 2637 525 
L 2637 0 
L 3149 0 
z
" transform="scale(0.015625)"/>
       <path id="HelveticaNeue-6d" d="M 410 3309 
L 410 0 
L 954 0 
L 954 2061 
Q 954 2157 1002 2301 
Q 1050 2445 1155 2579 
Q 1261 2714 1430 2810 
Q 1600 2906 1837 2906 
Q 2022 2906 2140 2851 
Q 2259 2797 2329 2697 
Q 2400 2598 2429 2464 
Q 2458 2330 2458 2170 
L 2458 0 
L 3002 0 
L 3002 2061 
Q 3002 2445 3232 2675 
Q 3462 2906 3866 2906 
Q 4064 2906 4189 2848 
Q 4314 2790 4384 2691 
Q 4454 2592 4480 2457 
Q 4506 2323 4506 2170 
L 4506 0 
L 5050 0 
L 5050 2426 
Q 5050 2682 4970 2864 
Q 4890 3046 4746 3161 
Q 4602 3277 4400 3331 
Q 4198 3386 3949 3386 
Q 3622 3386 3350 3238 
Q 3078 3091 2912 2822 
Q 2810 3130 2560 3258 
Q 2310 3386 2003 3386 
Q 1306 3386 934 2822 
L 922 2822 
L 922 3309 
L 410 3309 
z
" transform="scale(0.015625)"/>
      </defs>
      <use xlink:href="#HelveticaNeue-73"/>
      <use xlink:href="#HelveticaNeue-68" x="49.999985"/>
      <use xlink:href="#HelveticaNeue-69" x="105.599976"/>
      <use xlink:href="#HelveticaNeue-66" x="127.799973"/>
      <use xlink:href="#HelveticaNeue-74" x="157.399963"/>
      <use xlink:href="#HelveticaNeue-20" x="188.899948"/>
      <use xlink:href="#HelveticaNeue-69" x="216.699936"/>
      <use xlink:href="#HelveticaNeue-6e" x="238.899933"/>
      <use xlink:href="#HelveticaNeue-20" x="294.499924"/>
      <use xlink:href="#HelveticaNeue-72" x="322.299911"/>
      <use xlink:href="#HelveticaNeue-67" x="352.849899"/>
      <use xlink:href="#HelveticaNeue-20" x="410.249893"/>
      <use xlink:href="#HelveticaNeue-77" x="438.049881"/>
      <use xlink:href="#HelveticaNeue-69" x="513.849869"/>
      <use xlink:href="#HelveticaNeue-74" x="536.049866"/>
      <use xlink:href="#HelveticaNeue-68" x="567.54985"/>
      <use xlink:href="#HelveticaNeue-20" x="623.149841"/>
      <use xlink:href="#HelveticaNeue-61" x="650.949829"/>
      <use xlink:href="#HelveticaNeue-75" x="704.649826"/>
      <use xlink:href="#HelveticaNeue-74" x="760.249817"/>
      <use xlink:href="#HelveticaNeue-69" x="791.749802"/>
      <use xlink:href="#HelveticaNeue-73" x="813.949799"/>
      <use xlink:href="#HelveticaNeue-6d" x="863.949783"/>
     </g>
    </g>
   </g>
   <g id="matplotlib.axis_2"/>
   <g id="LineCollection_12">
    <path d="M 134.447296 29.052431 
L 154.632704 29.052431 
" clip-path="url(#p74f1c99ddd)" style="fill: none; stroke: #d8d0bf; stroke-width: 6.5"/>
   </g>
   <g id="LineCollection_13">
    <path d="M 132.160225 38.384233 
L 156.919775 38.384233 
" clip-path="url(#p74f1c99ddd)" style="fill: none; stroke: #d8d0bf; stroke-width: 6.5"/>
   </g>
   <g id="LineCollection_14">
    <path d="M 132.112396 47.716034 
L 156.967604 47.716034 
" clip-path="url(#p74f1c99ddd)" style="fill: none; stroke: #d8d0bf; stroke-width: 6.5"/>
   </g>
   <g id="LineCollection_15">
    <path d="M 129.126199 57.047836 
L 159.953801 57.047836 
" clip-path="url(#p74f1c99ddd)" style="fill: none; stroke: #d8d0bf; stroke-width: 6.5"/>
   </g>
   <g id="LineCollection_16">
    <path d="M 108.80726 66.379638 
L 180.27274 66.379638 
" clip-path="url(#p74f1c99ddd)" style="fill: none; stroke: #d8d0bf; stroke-width: 6.5"/>
   </g>
   <g id="LineCollection_17">
    <path d="M 126.555201 75.711439 
L 162.524799 75.711439 
" clip-path="url(#p74f1c99ddd)" style="fill: none; stroke: #d8d0bf; stroke-width: 6.5"/>
   </g>
   <g id="LineCollection_18">
    <path d="M 143.072074 99.040943 
L 146.007926 99.040943 
" clip-path="url(#p74f1c99ddd)" style="fill: none; stroke: #d8d0bf; stroke-width: 6.5"/>
   </g>
   <g id="LineCollection_19">
    <path d="M 142.645192 108.372745 
L 146.434808 108.372745 
" clip-path="url(#p74f1c99ddd)" style="fill: none; stroke: #d8d0bf; stroke-width: 6.5"/>
   </g>
   <g id="LineCollection_20">
    <path d="M 136.914777 131.702248 
L 152.165223 131.702248 
" clip-path="url(#p74f1c99ddd)" style="fill: none; stroke: #d8d0bf; stroke-width: 6.5"/>
   </g>
   <g id="LineCollection_21">
    <path d="M 134.005093 155.031752 
L 155.074907 155.031752 
" clip-path="url(#p74f1c99ddd)" style="fill: none; stroke: #d8d0bf; stroke-width: 6.5"/>
   </g>
   <g id="LineCollection_22">
    <path d="M 138.18807 178.361256 
L 150.89193 178.361256 
" clip-path="url(#p74f1c99ddd)" style="fill: none; stroke: #d8d0bf; stroke-width: 6.5"/>
   </g>
   <g id="patch_3">
    <path d="M 99.18 187.693058 
L 189.9 187.693058 
" style="fill: none; stroke: #898781; stroke-width: 0.6; stroke-linejoin: miter; stroke-linecap: square"/>
   </g>
   <g id="text_5">
    <!-- Focal -->
    <g style="fill: #52514e" transform="translate(79.87563 30.862041) scale(0.07 -0.07)">
     <defs>
      <path id="HelveticaNeue-46" d="M 499 4570 
L 499 0 
L 1107 0 
L 1107 2093 
L 3206 2093 
L 3206 2605 
L 1107 2605 
L 1107 4058 
L 3501 4058 
L 3501 4570 
L 499 4570 
z
" transform="scale(0.015625)"/>
      <path id="HelveticaNeue-6f" d="M 806 1651 
Q 806 1952 886 2185 
Q 966 2419 1107 2579 
Q 1248 2739 1437 2822 
Q 1626 2906 1837 2906 
Q 2048 2906 2237 2822 
Q 2426 2739 2566 2579 
Q 2707 2419 2787 2185 
Q 2867 1952 2867 1651 
Q 2867 1350 2787 1116 
Q 2707 883 2566 726 
Q 2426 570 2237 486 
Q 2048 403 1837 403 
Q 1626 403 1437 486 
Q 1248 570 1107 726 
Q 966 883 886 1116 
Q 806 1350 806 1651 
z
M 230 1651 
Q 230 1286 332 972 
Q 435 659 640 425 
Q 845 192 1145 61 
Q 1446 -70 1837 -70 
Q 2234 -70 2531 61 
Q 2829 192 3033 425 
Q 3238 659 3340 972 
Q 3443 1286 3443 1651 
Q 3443 2016 3340 2333 
Q 3238 2650 3033 2883 
Q 2829 3117 2531 3251 
Q 2234 3386 1837 3386 
Q 1446 3386 1145 3251 
Q 845 3117 640 2883 
Q 435 2650 332 2333 
Q 230 2016 230 1651 
z
" transform="scale(0.015625)"/>
      <path id="HelveticaNeue-63" d="M 2656 2246 
L 3219 2246 
Q 3187 2541 3065 2755 
Q 2944 2970 2755 3110 
Q 2566 3251 2320 3318 
Q 2074 3386 1792 3386 
Q 1402 3386 1107 3248 
Q 813 3110 617 2870 
Q 422 2630 326 2307 
Q 230 1984 230 1613 
Q 230 1242 329 931 
Q 429 621 624 397 
Q 819 173 1110 51 
Q 1402 -70 1779 -70 
Q 2413 -70 2781 262 
Q 3149 595 3238 1210 
L 2682 1210 
Q 2630 826 2403 614 
Q 2176 403 1773 403 
Q 1517 403 1331 505 
Q 1146 608 1030 777 
Q 915 947 860 1164 
Q 806 1382 806 1613 
Q 806 1862 857 2096 
Q 909 2330 1027 2509 
Q 1146 2688 1344 2797 
Q 1542 2906 1837 2906 
Q 2182 2906 2387 2733 
Q 2592 2560 2656 2246 
z
" transform="scale(0.015625)"/>
      <path id="HelveticaNeue-6c" d="M 442 4570 
L 442 0 
L 986 0 
L 986 4570 
L 442 4570 
z
" transform="scale(0.015625)"/>
     </defs>
     <use xlink:href="#HelveticaNeue-46"/>
     <use xlink:href="#HelveticaNeue-6f" x="57.399994"/>
     <use xlink:href="#HelveticaNeue-63" x="114.799988"/>
     <use xlink:href="#HelveticaNeue-61" x="168.499985"/>
     <use xlink:href="#HelveticaNeue-6c" x="222.199982"/>
    </g>
   </g>
   <g id="text_6">
    <!-- -0.13 -->
    <g style="fill: #52514e" transform="translate(193.514494 30.862041) scale(0.07 -0.07)">
     <defs>
      <path id="HelveticaNeue-31" d="M 2278 0 
L 2278 4538 
L 1862 4538 
Q 1818 4282 1696 4115 
Q 1574 3949 1398 3853 
Q 1222 3757 1004 3721 
Q 787 3686 557 3686 
L 557 3251 
L 1734 3251 
L 1734 0 
L 2278 0 
z
" transform="scale(0.015625)"/>
      <path id="HelveticaNeue-33" d="M 1395 2592 
L 1395 2131 
Q 1549 2150 1722 2150 
Q 1926 2150 2102 2096 
Q 2278 2042 2406 1930 
Q 2534 1818 2611 1654 
Q 2688 1491 2688 1280 
Q 2688 1075 2608 912 
Q 2528 749 2393 637 
Q 2259 525 2080 464 
Q 1901 403 1702 403 
Q 1235 403 992 681 
Q 749 960 736 1402 
L 192 1402 
Q 186 1050 291 774 
Q 397 499 595 310 
Q 794 122 1075 26 
Q 1357 -70 1702 -70 
Q 2022 -70 2307 16 
Q 2592 102 2803 275 
Q 3014 448 3139 707 
Q 3264 966 3264 1306 
Q 3264 1715 3062 2016 
Q 2861 2317 2445 2406 
L 2445 2419 
Q 2714 2541 2893 2777 
Q 3072 3014 3072 3322 
Q 3072 3635 2966 3865 
Q 2861 4096 2675 4243 
Q 2490 4390 2237 4464 
Q 1984 4538 1690 4538 
Q 1350 4538 1091 4429 
Q 832 4320 659 4128 
Q 486 3936 393 3667 
Q 301 3398 288 3072 
L 832 3072 
Q 832 3270 883 3449 
Q 934 3629 1040 3763 
Q 1146 3898 1309 3978 
Q 1472 4058 1690 4058 
Q 2035 4058 2265 3875 
Q 2496 3693 2496 3328 
Q 2496 3149 2425 3008 
Q 2355 2867 2236 2774 
Q 2118 2682 1961 2634 
Q 1805 2586 1632 2586 
L 1517 2586 
Q 1485 2586 1453 2586 
Q 1427 2586 1395 2592 
z
" transform="scale(0.015625)"/>
     </defs>
     <use xlink:href="#HelveticaNeue-2d"/>
     <use xlink:href="#HelveticaNeue-30" x="38.899994"/>
     <use xlink:href="#HelveticaNeue-2e" x="94.499985"/>
     <use xlink:href="#HelveticaNeue-31" x="122.299973"/>
     <use xlink:href="#HelveticaNeue-33" x="177.899963"/>
    </g>
   </g>
   <g id="text_7">
    <!-- 0.20 -->
    <g style="fill: #52514e" transform="translate(232.525931 30.862041) scale(0.07 -0.07)">
     <defs>
      <path id="HelveticaNeue-32" d="M 282 2931 
L 826 2931 
Q 819 3136 867 3337 
Q 915 3539 1024 3699 
Q 1133 3859 1302 3958 
Q 1472 4058 1709 4058 
Q 1888 4058 2048 4000 
Q 2208 3942 2326 3833 
Q 2445 3725 2515 3574 
Q 2586 3424 2586 3238 
Q 2586 3002 2512 2822 
Q 2438 2643 2294 2489 
Q 2150 2336 1932 2185 
Q 1715 2035 1427 1856 
Q 1190 1715 972 1555 
Q 755 1395 582 1184 
Q 410 973 298 688 
Q 186 403 154 0 
L 3117 0 
L 3117 480 
L 787 480 
Q 826 691 950 854 
Q 1075 1018 1251 1158 
Q 1427 1299 1638 1424 
Q 1850 1549 2061 1677 
Q 2272 1811 2470 1958 
Q 2669 2106 2822 2288 
Q 2976 2470 3069 2700 
Q 3162 2931 3162 3232 
Q 3162 3552 3050 3795 
Q 2938 4038 2746 4201 
Q 2554 4365 2294 4451 
Q 2035 4538 1741 4538 
Q 1382 4538 1100 4416 
Q 819 4294 630 4080 
Q 442 3866 352 3571 
Q 262 3277 282 2931 
z
" transform="scale(0.015625)"/>
     </defs>
     <use xlink:href="#HelveticaNeue-30"/>
     <use xlink:href="#HelveticaNeue-2e" x="55.599991"/>
     <use xlink:href="#HelveticaNeue-32" x="83.399979"/>
     <use xlink:href="#HelveticaNeue-30" x="138.999969"/>
    </g>
   </g>
   <g id="text_8">
    <!-- Focal, strict -->
    <g style="fill: #52514e" transform="translate(60.429849 40.193842) scale(0.07 -0.07)">
     <defs>
      <path id="HelveticaNeue-2c" d="M 531 710 
L 531 0 
L 909 0 
Q 915 -77 899 -166 
Q 883 -256 838 -342 
Q 794 -429 720 -502 
Q 646 -576 538 -614 
L 538 -934 
Q 909 -826 1075 -563 
Q 1242 -301 1242 64 
L 1242 710 
L 531 710 
z
" transform="scale(0.015625)"/>
     </defs>
     <use xlink:href="#HelveticaNeue-46"/>
     <use xlink:href="#HelveticaNeue-6f" x="57.399994"/>
     <use xlink:href="#HelveticaNeue-63" x="114.799988"/>
     <use xlink:href="#HelveticaNeue-61" x="168.499985"/>
     <use xlink:href="#HelveticaNeue-6c" x="222.199982"/>
     <use xlink:href="#HelveticaNeue-2c" x="244.399979"/>
     <use xlink:href="#HelveticaNeue-20" x="272.199966"/>
     <use xlink:href="#HelveticaNeue-73" x="299.999954"/>
     <use xlink:href="#HelveticaNeue-74" x="349.999939"/>
     <use xlink:href="#HelveticaNeue-72" x="381.499924"/>
     <use xlink:href="#HelveticaNeue-69" x="414.799911"/>
     <use xlink:href="#HelveticaNeue-63" x="436.999908"/>
     <use xlink:href="#HelveticaNeue-74" x="490.699905"/>
    </g>
   </g>
   <g id="text_9">
    <!-- -0.15 -->
    <g style="fill: #52514e" transform="translate(193.514494 40.193842) scale(0.07 -0.07)">
     <use xlink:href="#HelveticaNeue-2d"/>
     <use xlink:href="#HelveticaNeue-30" x="38.899994"/>
     <use xlink:href="#HelveticaNeue-2e" x="94.499985"/>
     <use xlink:href="#HelveticaNeue-31" x="122.299973"/>
     <use xlink:href="#HelveticaNeue-35" x="177.899963"/>
    </g>
   </g>
   <g id="text_10">
    <!-- 0.24 -->
    <g style="fill: #52514e" transform="translate(232.525931 40.193842) scale(0.07 -0.07)">
     <defs>
      <path id="HelveticaNeue-34" d="M 2170 1542 
L 646 1542 
L 2157 3763 
L 2170 3763 
L 2170 1542 
z
M 2682 1542 
L 2682 4538 
L 2246 4538 
L 179 1587 
L 179 1062 
L 2170 1062 
L 2170 0 
L 2682 0 
L 2682 1062 
L 3296 1062 
L 3296 1542 
L 2682 1542 
z
" transform="scale(0.015625)"/>
     </defs>
     <use xlink:href="#HelveticaNeue-30"/>
     <use xlink:href="#HelveticaNeue-2e" x="55.599991"/>
     <use xlink:href="#HelveticaNeue-32" x="83.399979"/>
     <use xlink:href="#HelveticaNeue-34" x="138.999969"/>
    </g>
   </g>
   <g id="text_11">
    <!-- Focal, mode -->
    <g style="fill: #52514e" transform="translate(58.084849 49.525644) scale(0.07 -0.07)">
     <defs>
      <path id="HelveticaNeue-64" d="M 806 1626 
Q 806 1869 857 2099 
Q 909 2330 1024 2509 
Q 1139 2688 1331 2797 
Q 1523 2906 1798 2906 
Q 2080 2906 2278 2800 
Q 2477 2694 2601 2521 
Q 2726 2349 2784 2121 
Q 2842 1894 2842 1651 
Q 2842 1421 2787 1197 
Q 2733 973 2611 797 
Q 2490 621 2298 512 
Q 2106 403 1830 403 
Q 1568 403 1373 505 
Q 1178 608 1053 781 
Q 928 954 867 1174 
Q 806 1395 806 1626 
z
M 3366 0 
L 3366 4570 
L 2822 4570 
L 2822 2867 
L 2810 2867 
Q 2720 3014 2589 3113 
Q 2458 3213 2310 3273 
Q 2163 3334 2016 3360 
Q 1869 3386 1741 3386 
Q 1363 3386 1078 3248 
Q 794 3110 605 2876 
Q 416 2643 323 2329 
Q 230 2016 230 1664 
Q 230 1312 326 998 
Q 422 685 611 448 
Q 800 211 1085 70 
Q 1370 -70 1754 -70 
Q 2099 -70 2387 51 
Q 2675 173 2810 448 
L 2822 448 
L 2822 0 
L 3366 0 
z
" transform="scale(0.015625)"/>
      <path id="HelveticaNeue-65" d="M 2707 1971 
L 806 1971 
Q 819 2163 889 2332 
Q 960 2502 1081 2630 
Q 1203 2758 1372 2832 
Q 1542 2906 1754 2906 
Q 1958 2906 2128 2832 
Q 2298 2758 2422 2633 
Q 2547 2509 2620 2336 
Q 2694 2163 2707 1971 
z
M 3232 1050 
L 2694 1050 
Q 2624 723 2403 563 
Q 2182 403 1837 403 
Q 1568 403 1369 492 
Q 1171 582 1043 732 
Q 915 883 857 1078 
Q 800 1274 806 1491 
L 3283 1491 
Q 3296 1792 3229 2125 
Q 3162 2458 2986 2739 
Q 2810 3021 2518 3203 
Q 2227 3386 1786 3386 
Q 1446 3386 1161 3258 
Q 877 3130 669 2899 
Q 461 2669 345 2355 
Q 230 2042 230 1664 
Q 243 1286 342 966 
Q 442 646 640 416 
Q 838 186 1129 58 
Q 1421 -70 1818 -70 
Q 2381 -70 2752 211 
Q 3123 493 3232 1050 
z
" transform="scale(0.015625)"/>
     </defs>
     <use xlink:href="#HelveticaNeue-46"/>
     <use xlink:href="#HelveticaNeue-6f" x="57.399994"/>
     <use xlink:href="#HelveticaNeue-63" x="114.799988"/>
     <use xlink:href="#HelveticaNeue-61" x="168.499985"/>
     <use xlink:href="#HelveticaNeue-6c" x="222.199982"/>
     <use xlink:href="#HelveticaNeue-2c" x="244.399979"/>
     <use xlink:href="#HelveticaNeue-20" x="272.199966"/>
     <use xlink:href="#HelveticaNeue-6d" x="299.999954"/>
     <use xlink:href="#HelveticaNeue-6f" x="385.299942"/>
     <use xlink:href="#HelveticaNeue-64" x="442.699936"/>
     <use xlink:href="#HelveticaNeue-65" x="501.999924"/>
    </g>
   </g>
   <g id="text_12">
    <!-- -0.20 -->
    <g style="fill: #0b0b0b" transform="translate(193.514494 49.525644) scale(0.07 -0.07)">
     <use xlink:href="#HelveticaNeue-2d"/>
     <use xlink:href="#HelveticaNeue-30" x="38.899994"/>
     <use xlink:href="#HelveticaNeue-2e" x="94.499985"/>
     <use xlink:href="#HelveticaNeue-32" x="122.299973"/>
     <use xlink:href="#HelveticaNeue-30" x="177.899963"/>
    </g>
   </g>
   <g id="text_13">
    <!-- 0.24 -->
    <g style="fill: #52514e" transform="translate(232.525931 49.525644) scale(0.07 -0.07)">
     <use xlink:href="#HelveticaNeue-30"/>
     <use xlink:href="#HelveticaNeue-2e" x="55.599991"/>
     <use xlink:href="#HelveticaNeue-32" x="83.399979"/>
     <use xlink:href="#HelveticaNeue-34" x="138.999969"/>
    </g>
   </g>
   <g id="text_14">
    <!-- Generalized -->
    <g style="fill: #52514e" transform="translate(59.793286 58.857445) scale(0.07 -0.07)">
     <defs>
      <path id="HelveticaNeue-47" d="M 3917 570 
L 4077 0 
L 4461 0 
L 4461 2406 
L 2458 2406 
L 2458 1894 
L 3917 1894 
Q 3930 1581 3834 1309 
Q 3738 1037 3549 835 
Q 3360 634 3085 518 
Q 2810 403 2451 403 
Q 2067 403 1776 553 
Q 1485 704 1286 957 
Q 1088 1210 985 1539 
Q 883 1869 883 2227 
Q 883 2592 972 2941 
Q 1062 3290 1251 3562 
Q 1440 3834 1737 4000 
Q 2035 4166 2451 4166 
Q 2707 4166 2934 4105 
Q 3162 4045 3341 3923 
Q 3520 3802 3641 3613 
Q 3763 3424 3808 3162 
L 4416 3162 
Q 4352 3565 4176 3849 
Q 4000 4134 3741 4320 
Q 3482 4506 3152 4592 
Q 2822 4678 2451 4678 
Q 1907 4678 1500 4476 
Q 1094 4275 822 3936 
Q 550 3597 412 3145 
Q 275 2694 275 2195 
Q 275 1747 422 1331 
Q 570 915 851 595 
Q 1133 275 1536 86 
Q 1939 -102 2451 -102 
Q 2854 -102 3251 54 
Q 3648 211 3917 570 
z
" transform="scale(0.015625)"/>
      <path id="HelveticaNeue-7a" d="M 141 416 
L 141 0 
L 2931 0 
L 2931 480 
L 819 480 
L 2842 2938 
L 2842 3309 
L 269 3309 
L 269 2829 
L 2138 2829 
L 141 416 
z
" transform="scale(0.015625)"/>
     </defs>
     <use xlink:href="#HelveticaNeue-47"/>
     <use xlink:href="#HelveticaNeue-65" x="75.899994"/>
     <use xlink:href="#HelveticaNeue-6e" x="129.599991"/>
     <use xlink:href="#HelveticaNeue-65" x="185.199982"/>
     <use xlink:href="#HelveticaNeue-72" x="238.899979"/>
     <use xlink:href="#HelveticaNeue-61" x="272.199966"/>
     <use xlink:href="#HelveticaNeue-6c" x="325.899963"/>
     <use xlink:href="#HelveticaNeue-69" x="348.09996"/>
     <use xlink:href="#HelveticaNeue-7a" x="370.299957"/>
     <use xlink:href="#HelveticaNeue-65" x="418.299942"/>
     <use xlink:href="#HelveticaNeue-64" x="471.999939"/>
    </g>
   </g>
   <g id="text_15">
    <!-- 0.00 -->
    <g style="fill: #52514e" transform="translate(196.237931 58.857445) scale(0.07 -0.07)">
     <use xlink:href="#HelveticaNeue-30"/>
     <use xlink:href="#HelveticaNeue-2e" x="55.599991"/>
     <use xlink:href="#HelveticaNeue-30" x="83.399979"/>
     <use xlink:href="#HelveticaNeue-30" x="138.999969"/>
    </g>
   </g>
   <g id="text_16">
    <!-- 0.30 -->
    <g style="fill: #52514e" transform="translate(232.525931 58.857445) scale(0.07 -0.07)">
     <use xlink:href="#HelveticaNeue-30"/>
     <use xlink:href="#HelveticaNeue-2e" x="55.599991"/>
     <use xlink:href="#HelveticaNeue-33" x="83.399979"/>
     <use xlink:href="#HelveticaNeue-30" x="138.999969"/>
    </g>
   </g>
   <g id="text_17">
    <!-- Generalized, strict -->
    <g style="fill: #52514e" transform="translate(40.347505 68.189247) scale(0.07 -0.07)">
     <use xlink:href="#HelveticaNeue-47"/>
     <use xlink:href="#HelveticaNeue-65" x="75.899994"/>
     <use xlink:href="#HelveticaNeue-6e" x="129.599991"/>
     <use xlink:href="#HelveticaNeue-65" x="185.199982"/>
     <use xlink:href="#HelveticaNeue-72" x="238.899979"/>
     <use xlink:href="#HelveticaNeue-61" x="272.199966"/>
     <use xlink:href="#HelveticaNeue-6c" x="325.899963"/>
     <use xlink:href="#HelveticaNeue-69" x="348.09996"/>
     <use xlink:href="#HelveticaNeue-7a" x="370.299957"/>
     <use xlink:href="#HelveticaNeue-65" x="418.299942"/>
     <use xlink:href="#HelveticaNeue-64" x="471.999939"/>
     <use xlink:href="#HelveticaNeue-2c" x="531.299927"/>
     <use xlink:href="#HelveticaNeue-20" x="559.099915"/>
     <use xlink:href="#HelveticaNeue-73" x="586.899902"/>
     <use xlink:href="#HelveticaNeue-74" x="636.899887"/>
     <use xlink:href="#HelveticaNeue-72" x="668.399872"/>
     <use xlink:href="#HelveticaNeue-69" x="701.69986"/>
     <use xlink:href="#HelveticaNeue-63" x="723.899857"/>
     <use xlink:href="#HelveticaNeue-74" x="777.599854"/>
    </g>
   </g>
   <g id="text_18">
    <!-- -0.07 -->
    <g style="fill: #52514e" transform="translate(193.514494 68.189247) scale(0.07 -0.07)">
     <defs>
      <path id="HelveticaNeue-37" d="M 3258 3994 
L 3258 4461 
L 320 4461 
L 320 3949 
L 2701 3949 
Q 2342 3571 2032 3123 
Q 1722 2675 1485 2172 
Q 1248 1670 1097 1123 
Q 947 576 909 0 
L 1517 0 
Q 1549 531 1696 1094 
Q 1843 1658 2076 2189 
Q 2310 2720 2611 3187 
Q 2912 3654 3258 3994 
z
" transform="scale(0.015625)"/>
     </defs>
     <use xlink:href="#HelveticaNeue-2d"/>
     <use xlink:href="#HelveticaNeue-30" x="38.899994"/>
     <use xlink:href="#HelveticaNeue-2e" x="94.499985"/>
     <use xlink:href="#HelveticaNeue-30" x="122.299973"/>
     <use xlink:href="#HelveticaNeue-37" x="177.899963"/>
    </g>
   </g>
   <g id="text_19">
    <!-- 0.70 -->
    <g style="fill: #52514e" transform="translate(232.525931 68.189247) scale(0.07 -0.07)">
     <use xlink:href="#HelveticaNeue-30"/>
     <use xlink:href="#HelveticaNeue-2e" x="55.599991"/>
     <use xlink:href="#HelveticaNeue-37" x="83.399979"/>
     <use xlink:href="#HelveticaNeue-30" x="138.999969"/>
    </g>
   </g>
   <g id="text_20">
    <!-- Generalized, mode -->
    <g style="fill: #52514e" transform="translate(38.002505 77.521048) scale(0.07 -0.07)">
     <use xlink:href="#HelveticaNeue-47"/>
     <use xlink:href="#HelveticaNeue-65" x="75.899994"/>
     <use xlink:href="#HelveticaNeue-6e" x="129.599991"/>
     <use xlink:href="#HelveticaNeue-65" x="185.199982"/>
     <use xlink:href="#HelveticaNeue-72" x="238.899979"/>
     <use xlink:href="#HelveticaNeue-61" x="272.199966"/>
     <use xlink:href="#HelveticaNeue-6c" x="325.899963"/>
     <use xlink:href="#HelveticaNeue-69" x="348.09996"/>
     <use xlink:href="#HelveticaNeue-7a" x="370.299957"/>
     <use xlink:href="#HelveticaNeue-65" x="418.299942"/>
     <use xlink:href="#HelveticaNeue-64" x="471.999939"/>
     <use xlink:href="#HelveticaNeue-2c" x="531.299927"/>
     <use xlink:href="#HelveticaNeue-20" x="559.099915"/>
     <use xlink:href="#HelveticaNeue-6d" x="586.899902"/>
     <use xlink:href="#HelveticaNeue-6f" x="672.19989"/>
     <use xlink:href="#HelveticaNeue-64" x="729.599884"/>
     <use xlink:href="#HelveticaNeue-65" x="788.899872"/>
    </g>
   </g>
   <g id="text_21">
    <!-- 0.00 -->
    <g style="fill: #52514e" transform="translate(196.237931 77.521048) scale(0.07 -0.07)">
     <use xlink:href="#HelveticaNeue-30"/>
     <use xlink:href="#HelveticaNeue-2e" x="55.599991"/>
     <use xlink:href="#HelveticaNeue-30" x="83.399979"/>
     <use xlink:href="#HelveticaNeue-30" x="138.999969"/>
    </g>
   </g>
   <g id="text_22">
    <!-- 0.35 -->
    <g style="fill: #52514e" transform="translate(232.525931 77.521048) scale(0.07 -0.07)">
     <use xlink:href="#HelveticaNeue-30"/>
     <use xlink:href="#HelveticaNeue-2e" x="55.599991"/>
     <use xlink:href="#HelveticaNeue-33" x="83.399979"/>
     <use xlink:href="#HelveticaNeue-35" x="138.999969"/>
    </g>
   </g>
   <g id="text_23">
    <!-- + primary care -->
    <g style="fill: #52514e" transform="translate(51.811099 100.815552) scale(0.07 -0.07)">
     <defs>
      <path id="HelveticaNeue-70" d="M 429 3309 
L 429 -1261 
L 973 -1261 
L 973 442 
L 986 442 
Q 1075 294 1206 195 
Q 1338 96 1485 38 
Q 1632 -19 1782 -44 
Q 1933 -70 2054 -70 
Q 2432 -70 2717 64 
Q 3002 198 3190 432 
Q 3379 666 3472 979 
Q 3565 1293 3565 1645 
Q 3565 1997 3469 2310 
Q 3373 2624 3184 2864 
Q 2995 3104 2710 3245 
Q 2426 3386 2042 3386 
Q 1696 3386 1408 3261 
Q 1120 3136 986 2861 
L 973 2861 
L 973 3309 
L 429 3309 
z
M 2989 1683 
Q 2989 1440 2937 1209 
Q 2886 979 2771 800 
Q 2656 621 2467 512 
Q 2278 403 1997 403 
Q 1715 403 1516 508 
Q 1318 614 1193 787 
Q 1069 960 1011 1187 
Q 954 1414 954 1658 
Q 954 1888 1008 2112 
Q 1062 2336 1184 2512 
Q 1306 2688 1498 2797 
Q 1690 2906 1965 2906 
Q 2227 2906 2422 2803 
Q 2618 2701 2742 2528 
Q 2867 2355 2928 2134 
Q 2989 1914 2989 1683 
z
" transform="scale(0.015625)"/>
      <path id="HelveticaNeue-79" d="M 1709 -442 
Q 1613 -685 1520 -851 
Q 1427 -1018 1315 -1123 
Q 1203 -1229 1065 -1277 
Q 928 -1325 749 -1325 
Q 653 -1325 557 -1312 
Q 461 -1299 371 -1267 
L 371 -768 
Q 442 -800 534 -822 
Q 627 -845 691 -845 
Q 858 -845 970 -765 
Q 1082 -685 1139 -538 
L 1363 19 
L 51 3309 
L 666 3309 
L 1632 602 
L 1645 602 
L 2573 3309 
L 3149 3309 
L 1709 -442 
z
" transform="scale(0.015625)"/>
     </defs>
     <use xlink:href="#HelveticaNeue-2b"/>
     <use xlink:href="#HelveticaNeue-20" x="59.999985"/>
     <use xlink:href="#HelveticaNeue-70" x="87.799973"/>
     <use xlink:href="#HelveticaNeue-72" x="147.09996"/>
     <use xlink:href="#HelveticaNeue-69" x="180.399948"/>
     <use xlink:href="#HelveticaNeue-6d" x="202.599945"/>
     <use xlink:href="#HelveticaNeue-61" x="287.899933"/>
     <use xlink:href="#HelveticaNeue-72" x="341.59993"/>
     <use xlink:href="#HelveticaNeue-79" x="374.899918"/>
     <use xlink:href="#HelveticaNeue-20" x="424.899902"/>
     <use xlink:href="#HelveticaNeue-63" x="452.69989"/>
     <use xlink:href="#HelveticaNeue-61" x="506.399887"/>
     <use xlink:href="#HelveticaNeue-72" x="560.099884"/>
     <use xlink:href="#HelveticaNeue-65" x="591.649872"/>
    </g>
   </g>
   <g id="text_24">
    <!-- -0.01 -->
    <g style="fill: #52514e" transform="translate(193.514494 100.850552) scale(0.07 -0.07)">
     <use xlink:href="#HelveticaNeue-2d"/>
     <use xlink:href="#HelveticaNeue-30" x="38.899994"/>
     <use xlink:href="#HelveticaNeue-2e" x="94.499985"/>
     <use xlink:href="#HelveticaNeue-30" x="122.299973"/>
     <use xlink:href="#HelveticaNeue-31" x="177.899963"/>
    </g>
   </g>
   <g id="text_25">
    <!-- 0.03 -->
    <g style="fill: #52514e" transform="translate(232.525931 100.850552) scale(0.07 -0.07)">
     <use xlink:href="#HelveticaNeue-30"/>
     <use xlink:href="#HelveticaNeue-2e" x="55.599991"/>
     <use xlink:href="#HelveticaNeue-30" x="83.399979"/>
     <use xlink:href="#HelveticaNeue-33" x="138.999969"/>
    </g>
   </g>
   <g id="text_26">
    <!-- Any sleep disorder -->
    <g style="fill: #52514e" transform="translate(38.770318 110.147354) scale(0.07 -0.07)">
     <defs>
      <path id="HelveticaNeue-41" d="M 1286 1888 
L 2061 4019 
L 2074 4019 
L 2835 1888 
L 1286 1888 
z
M 1741 4570 
L -38 0 
L 582 0 
L 1094 1376 
L 3027 1376 
L 3526 0 
L 4198 0 
L 2413 4570 
L 1741 4570 
z
" transform="scale(0.015625)"/>
     </defs>
     <use xlink:href="#HelveticaNeue-41"/>
     <use xlink:href="#HelveticaNeue-6e" x="64.799988"/>
     <use xlink:href="#HelveticaNeue-79" x="120.399979"/>
     <use xlink:href="#HelveticaNeue-20" x="170.399963"/>
     <use xlink:href="#HelveticaNeue-73" x="198.199951"/>
     <use xlink:href="#HelveticaNeue-6c" x="248.199936"/>
     <use xlink:href="#HelveticaNeue-65" x="270.399933"/>
     <use xlink:href="#HelveticaNeue-65" x="324.09993"/>
     <use xlink:href="#HelveticaNeue-70" x="377.799927"/>
     <use xlink:href="#HelveticaNeue-20" x="437.099915"/>
     <use xlink:href="#HelveticaNeue-64" x="464.899902"/>
     <use xlink:href="#HelveticaNeue-69" x="524.19989"/>
     <use xlink:href="#HelveticaNeue-73" x="546.399887"/>
     <use xlink:href="#HelveticaNeue-6f" x="596.399872"/>
     <use xlink:href="#HelveticaNeue-72" x="653.799866"/>
     <use xlink:href="#HelveticaNeue-64" x="685.349854"/>
     <use xlink:href="#HelveticaNeue-65" x="744.649841"/>
     <use xlink:href="#HelveticaNeue-72" x="798.349838"/>
    </g>
   </g>
   <g id="text_27">
    <!-- +0.03 -->
    <g style="fill: #0b0b0b" transform="translate(192.037931 110.182354) scale(0.07 -0.07)">
     <use xlink:href="#HelveticaNeue-2b"/>
     <use xlink:href="#HelveticaNeue-30" x="59.999985"/>
     <use xlink:href="#HelveticaNeue-2e" x="115.599976"/>
     <use xlink:href="#HelveticaNeue-30" x="143.399963"/>
     <use xlink:href="#HelveticaNeue-33" x="198.999954"/>
    </g>
   </g>
   <g id="text_28">
    <!-- 0.04 -->
    <g style="fill: #52514e" transform="translate(232.525931 110.182354) scale(0.07 -0.07)">
     <use xlink:href="#HelveticaNeue-30"/>
     <use xlink:href="#HelveticaNeue-2e" x="55.599991"/>
     <use xlink:href="#HelveticaNeue-30" x="83.399979"/>
     <use xlink:href="#HelveticaNeue-34" x="138.999969"/>
    </g>
   </g>
   <g id="text_29">
    <!-- Nonorganic sleep (F51) -->
    <g style="fill: #52514e" transform="translate(24.83813 133.528811) scale(0.07 -0.07)">
     <defs>
      <path id="HelveticaNeue-4e" d="M 493 4570 
L 493 0 
L 1069 0 
L 1069 3667 
L 1082 3667 
L 3469 0 
L 4134 0 
L 4134 4570 
L 3558 4570 
L 3558 864 
L 3546 864 
L 1139 4570 
L 493 4570 
z
" transform="scale(0.015625)"/>
      <path id="HelveticaNeue-28" d="M 1306 -1261 
L 1722 -1261 
Q 1267 -525 1072 198 
Q 877 922 877 1728 
Q 877 2515 1069 3232 
Q 1261 3949 1722 4678 
L 1306 4678 
Q 806 4019 553 3251 
Q 301 2483 301 1728 
Q 301 1306 371 922 
Q 442 538 573 173 
Q 704 -192 889 -547 
Q 1075 -902 1306 -1261 
z
" transform="scale(0.015625)"/>
      <path id="HelveticaNeue-29" d="M -58 -1261 
L 352 -1261 
Q 851 -602 1104 163 
Q 1357 928 1357 1683 
Q 1357 2106 1286 2490 
Q 1216 2874 1085 3242 
Q 954 3610 768 3965 
Q 582 4320 352 4678 
L -58 4678 
Q 390 3942 585 3216 
Q 781 2490 781 1683 
Q 781 902 589 182 
Q 397 -538 -58 -1261 
z
" transform="scale(0.015625)"/>
     </defs>
     <use xlink:href="#HelveticaNeue-4e"/>
     <use xlink:href="#HelveticaNeue-6f" x="72.199982"/>
     <use xlink:href="#HelveticaNeue-6e" x="129.599976"/>
     <use xlink:href="#HelveticaNeue-6f" x="185.199966"/>
     <use xlink:href="#HelveticaNeue-72" x="242.59996"/>
     <use xlink:href="#HelveticaNeue-67" x="273.149948"/>
     <use xlink:href="#HelveticaNeue-61" x="330.549942"/>
     <use xlink:href="#HelveticaNeue-6e" x="384.249939"/>
     <use xlink:href="#HelveticaNeue-69" x="439.84993"/>
     <use xlink:href="#HelveticaNeue-63" x="462.049927"/>
     <use xlink:href="#HelveticaNeue-20" x="515.749924"/>
     <use xlink:href="#HelveticaNeue-73" x="543.549911"/>
     <use xlink:href="#HelveticaNeue-6c" x="593.549896"/>
     <use xlink:href="#HelveticaNeue-65" x="615.749893"/>
     <use xlink:href="#HelveticaNeue-65" x="669.44989"/>
     <use xlink:href="#HelveticaNeue-70" x="723.149887"/>
     <use xlink:href="#HelveticaNeue-20" x="782.449875"/>
     <use xlink:href="#HelveticaNeue-28" x="810.249863"/>
     <use xlink:href="#HelveticaNeue-46" x="836.149857"/>
     <use xlink:href="#HelveticaNeue-35" x="893.54985"/>
     <use xlink:href="#HelveticaNeue-31" x="949.149841"/>
     <use xlink:href="#HelveticaNeue-29" x="1004.749832"/>
    </g>
   </g>
   <g id="text_30">
    <!-- +0.09 -->
    <g style="fill: #52514e" transform="translate(192.037931 133.511858) scale(0.07 -0.07)">
     <defs>
      <path id="HelveticaNeue-39" d="M 858 1094 
L 314 1094 
Q 365 506 742 218 
Q 1120 -70 1690 -70 
Q 2515 -70 2889 560 
Q 3264 1190 3264 2368 
Q 3264 3014 3139 3433 
Q 3014 3853 2803 4096 
Q 2592 4339 2310 4438 
Q 2029 4538 1709 4538 
Q 1382 4538 1107 4429 
Q 832 4320 633 4125 
Q 435 3930 326 3658 
Q 218 3386 218 3059 
Q 218 2726 310 2444 
Q 403 2163 585 1964 
Q 768 1766 1037 1654 
Q 1306 1542 1651 1542 
Q 1984 1542 2265 1712 
Q 2547 1882 2701 2170 
L 2714 2157 
Q 2688 1267 2438 835 
Q 2189 403 1690 403 
Q 1363 403 1126 582 
Q 890 762 858 1094 
z
M 2618 3021 
Q 2618 2822 2554 2640 
Q 2490 2458 2368 2320 
Q 2246 2182 2073 2102 
Q 1901 2022 1690 2022 
Q 1491 2022 1328 2102 
Q 1165 2182 1046 2316 
Q 928 2451 861 2624 
Q 794 2797 794 2982 
Q 794 3194 842 3386 
Q 890 3578 995 3728 
Q 1101 3878 1270 3968 
Q 1440 4058 1683 4058 
Q 1914 4058 2086 3974 
Q 2259 3891 2377 3747 
Q 2496 3603 2557 3417 
Q 2618 3232 2618 3021 
z
" transform="scale(0.015625)"/>
     </defs>
     <use xlink:href="#HelveticaNeue-2b"/>
     <use xlink:href="#HelveticaNeue-30" x="59.999985"/>
     <use xlink:href="#HelveticaNeue-2e" x="115.599976"/>
     <use xlink:href="#HelveticaNeue-30" x="143.399963"/>
     <use xlink:href="#HelveticaNeue-39" x="198.999954"/>
    </g>
   </g>
   <g id="text_31">
    <!-- 0.15 -->
    <g style="fill: #52514e" transform="translate(232.525931 133.511858) scale(0.07 -0.07)">
     <use xlink:href="#HelveticaNeue-30"/>
     <use xlink:href="#HelveticaNeue-2e" x="55.599991"/>
     <use xlink:href="#HelveticaNeue-31" x="83.399979"/>
     <use xlink:href="#HelveticaNeue-35" x="138.999969"/>
    </g>
   </g>
   <g id="text_32">
    <!-- Functional bowel (K59) -->
    <g style="fill: #52514e" transform="translate(25.682505 156.900424) scale(0.07 -0.07)">
     <defs>
      <path id="HelveticaNeue-62" d="M 429 4570 
L 429 0 
L 973 0 
L 973 442 
L 986 442 
Q 1075 294 1206 195 
Q 1338 96 1485 38 
Q 1632 -19 1782 -44 
Q 1933 -70 2054 -70 
Q 2432 -70 2717 64 
Q 3002 198 3190 432 
Q 3379 666 3472 979 
Q 3565 1293 3565 1645 
Q 3565 1997 3469 2310 
Q 3373 2624 3184 2864 
Q 2995 3104 2710 3245 
Q 2426 3386 2042 3386 
Q 1696 3386 1408 3261 
Q 1120 3136 986 2861 
L 973 2861 
L 973 4570 
L 429 4570 
z
M 2989 1683 
Q 2989 1440 2937 1209 
Q 2886 979 2771 800 
Q 2656 621 2467 512 
Q 2278 403 1997 403 
Q 1715 403 1516 508 
Q 1318 614 1193 787 
Q 1069 960 1011 1187 
Q 954 1414 954 1658 
Q 954 1888 1008 2112 
Q 1062 2336 1184 2512 
Q 1306 2688 1498 2797 
Q 1690 2906 1965 2906 
Q 2227 2906 2422 2803 
Q 2618 2701 2742 2528 
Q 2867 2355 2928 2134 
Q 2989 1914 2989 1683 
z
" transform="scale(0.015625)"/>
      <path id="HelveticaNeue-4b" d="M 499 4570 
L 499 0 
L 1107 0 
L 1107 1600 
L 1869 2310 
L 3520 0 
L 4288 0 
L 2285 2726 
L 4211 4570 
L 3424 4570 
L 1107 2291 
L 1107 4570 
L 499 4570 
z
" transform="scale(0.015625)"/>
     </defs>
     <use xlink:href="#HelveticaNeue-46"/>
     <use xlink:href="#HelveticaNeue-75" x="57.399994"/>
     <use xlink:href="#HelveticaNeue-6e" x="112.999985"/>
     <use xlink:href="#HelveticaNeue-63" x="168.599976"/>
     <use xlink:href="#HelveticaNeue-74" x="222.299973"/>
     <use xlink:href="#HelveticaNeue-69" x="253.799957"/>
     <use xlink:href="#HelveticaNeue-6f" x="275.999954"/>
     <use xlink:href="#HelveticaNeue-6e" x="333.399948"/>
     <use xlink:href="#HelveticaNeue-61" x="388.999939"/>
     <use xlink:href="#HelveticaNeue-6c" x="442.699936"/>
     <use xlink:href="#HelveticaNeue-20" x="464.899933"/>
     <use xlink:href="#HelveticaNeue-62" x="492.699921"/>
     <use xlink:href="#HelveticaNeue-6f" x="551.999908"/>
     <use xlink:href="#HelveticaNeue-77" x="609.399902"/>
     <use xlink:href="#HelveticaNeue-65" x="685.19989"/>
     <use xlink:href="#HelveticaNeue-6c" x="738.899887"/>
     <use xlink:href="#HelveticaNeue-20" x="761.099884"/>
     <use xlink:href="#HelveticaNeue-28" x="788.899872"/>
     <use xlink:href="#HelveticaNeue-4b" x="814.799866"/>
     <use xlink:href="#HelveticaNeue-35" x="881.499863"/>
     <use xlink:href="#HelveticaNeue-39" x="937.099854"/>
     <use xlink:href="#HelveticaNeue-29" x="992.699844"/>
    </g>
   </g>
   <g id="text_33">
    <!-- -0.01 -->
    <g style="fill: #52514e" transform="translate(193.514494 156.841362) scale(0.07 -0.07)">
     <use xlink:href="#HelveticaNeue-2d"/>
     <use xlink:href="#HelveticaNeue-30" x="38.899994"/>
     <use xlink:href="#HelveticaNeue-2e" x="94.499985"/>
     <use xlink:href="#HelveticaNeue-30" x="122.299973"/>
     <use xlink:href="#HelveticaNeue-31" x="177.899963"/>
    </g>
   </g>
   <g id="text_34">
    <!-- 0.21 -->
    <g style="fill: #52514e" transform="translate(232.525931 156.841362) scale(0.07 -0.07)">
     <use xlink:href="#HelveticaNeue-30"/>
     <use xlink:href="#HelveticaNeue-2e" x="55.599991"/>
     <use xlink:href="#HelveticaNeue-32" x="83.399979"/>
     <use xlink:href="#HelveticaNeue-31" x="138.999969"/>
    </g>
   </g>
   <g id="text_35">
    <!-- F90, strict controls -->
    <g style="fill: #52514e" transform="translate(38.63688 180.170866) scale(0.07 -0.07)">
     <use xlink:href="#HelveticaNeue-46"/>
     <use xlink:href="#HelveticaNeue-39" x="57.399994"/>
     <use xlink:href="#HelveticaNeue-30" x="112.999985"/>
     <use xlink:href="#HelveticaNeue-2c" x="168.599976"/>
     <use xlink:href="#HelveticaNeue-20" x="196.399963"/>
     <use xlink:href="#HelveticaNeue-73" x="224.199951"/>
     <use xlink:href="#HelveticaNeue-74" x="274.199936"/>
     <use xlink:href="#HelveticaNeue-72" x="305.699921"/>
     <use xlink:href="#HelveticaNeue-69" x="338.999908"/>
     <use xlink:href="#HelveticaNeue-63" x="361.199905"/>
     <use xlink:href="#HelveticaNeue-74" x="414.899902"/>
     <use xlink:href="#HelveticaNeue-20" x="446.399887"/>
     <use xlink:href="#HelveticaNeue-63" x="474.199875"/>
     <use xlink:href="#HelveticaNeue-6f" x="527.899872"/>
     <use xlink:href="#HelveticaNeue-6e" x="585.299866"/>
     <use xlink:href="#HelveticaNeue-74" x="640.899857"/>
     <use xlink:href="#HelveticaNeue-72" x="672.399841"/>
     <use xlink:href="#HelveticaNeue-6f" x="703.949829"/>
     <use xlink:href="#HelveticaNeue-6c" x="761.349823"/>
     <use xlink:href="#HelveticaNeue-73" x="783.54982"/>
    </g>
   </g>
   <g id="text_36">
    <!-- +0.02 -->
    <g style="fill: #52514e" transform="translate(192.037931 180.170866) scale(0.07 -0.07)">
     <use xlink:href="#HelveticaNeue-2b"/>
     <use xlink:href="#HelveticaNeue-30" x="59.999985"/>
     <use xlink:href="#HelveticaNeue-2e" x="115.599976"/>
     <use xlink:href="#HelveticaNeue-30" x="143.399963"/>
     <use xlink:href="#HelveticaNeue-32" x="198.999954"/>
    </g>
   </g>
   <g id="text_37">
    <!-- 0.12 -->
    <g style="fill: #52514e" transform="translate(232.525931 180.170866) scale(0.07 -0.07)">
     <use xlink:href="#HelveticaNeue-30"/>
     <use xlink:href="#HelveticaNeue-2e" x="55.599991"/>
     <use xlink:href="#HelveticaNeue-31" x="83.399979"/>
     <use xlink:href="#HelveticaNeue-32" x="138.999969"/>
    </g>
   </g>
   <g id="text_38">
    <!-- Epilepsy -->
    <g style="fill: #0b0b0b" transform="translate(7.2 21.180758) scale(0.076 -0.076)">
     <defs>
      <path id="HelveticaNeue-45" d="M 499 4570 
L 499 0 
L 3674 0 
L 3674 512 
L 1107 512 
L 1107 2093 
L 3482 2093 
L 3482 2605 
L 1107 2605 
L 1107 4058 
L 3654 4058 
L 3654 4570 
L 499 4570 
z
" transform="scale(0.015625)"/>
     </defs>
     <use xlink:href="#HelveticaNeue-45"/>
     <use xlink:href="#HelveticaNeue-70" x="61.099991"/>
     <use xlink:href="#HelveticaNeue-69" x="120.399979"/>
     <use xlink:href="#HelveticaNeue-6c" x="142.599976"/>
     <use xlink:href="#HelveticaNeue-65" x="164.799973"/>
     <use xlink:href="#HelveticaNeue-70" x="218.499969"/>
     <use xlink:href="#HelveticaNeue-73" x="277.799957"/>
     <use xlink:href="#HelveticaNeue-79" x="327.799942"/>
    </g>
   </g>
   <g id="text_39">
    <!-- vs any epilepsy -->
    <g style="fill: #898781" transform="translate(99.18 21.028649) scale(0.07 -0.07)">
     <defs>
      <path id="HelveticaNeue-76" d="M 1901 0 
L 3110 3309 
L 2541 3309 
L 1638 550 
L 1626 550 
L 698 3309 
L 90 3309 
L 1318 0 
L 1901 0 
z
" transform="scale(0.015625)"/>
     </defs>
     <use xlink:href="#HelveticaNeue-76"/>
     <use xlink:href="#HelveticaNeue-73" x="49.999985"/>
     <use xlink:href="#HelveticaNeue-20" x="99.999969"/>
     <use xlink:href="#HelveticaNeue-61" x="127.799957"/>
     <use xlink:href="#HelveticaNeue-6e" x="181.499954"/>
     <use xlink:href="#HelveticaNeue-79" x="237.099945"/>
     <use xlink:href="#HelveticaNeue-20" x="287.09993"/>
     <use xlink:href="#HelveticaNeue-65" x="314.899918"/>
     <use xlink:href="#HelveticaNeue-70" x="368.599915"/>
     <use xlink:href="#HelveticaNeue-69" x="427.899902"/>
     <use xlink:href="#HelveticaNeue-6c" x="450.099899"/>
     <use xlink:href="#HelveticaNeue-65" x="472.299896"/>
     <use xlink:href="#HelveticaNeue-70" x="525.999893"/>
     <use xlink:href="#HelveticaNeue-73" x="585.299881"/>
     <use xlink:href="#HelveticaNeue-79" x="635.299866"/>
    </g>
   </g>
   <g id="text_40">
    <!-- Sleep apnoea -->
    <g style="fill: #0b0b0b" transform="translate(7.2 91.271395) scale(0.076 -0.076)">
     <defs>
      <path id="HelveticaNeue-53" d="M 3142 3232 
L 3718 3232 
Q 3706 3610 3574 3882 
Q 3443 4154 3216 4333 
Q 2989 4512 2688 4595 
Q 2387 4678 2035 4678 
Q 1722 4678 1424 4598 
Q 1126 4518 892 4355 
Q 659 4192 518 3939 
Q 378 3686 378 3341 
Q 378 3027 502 2819 
Q 627 2611 835 2480 
Q 1043 2349 1305 2269 
Q 1568 2189 1840 2128 
Q 2112 2067 2374 2009 
Q 2637 1952 2845 1859 
Q 3053 1766 3177 1619 
Q 3302 1472 3302 1235 
Q 3302 986 3200 826 
Q 3098 666 2931 573 
Q 2765 480 2557 441 
Q 2349 403 2144 403 
Q 1888 403 1645 467 
Q 1402 531 1219 665 
Q 1037 800 925 1008 
Q 813 1216 813 1504 
L 237 1504 
Q 237 1088 387 784 
Q 538 480 797 285 
Q 1056 90 1398 -6 
Q 1741 -102 2125 -102 
Q 2438 -102 2755 -28 
Q 3072 45 3328 208 
Q 3584 371 3747 630 
Q 3910 890 3910 1254 
Q 3910 1594 3785 1818 
Q 3661 2042 3453 2189 
Q 3245 2336 2982 2422 
Q 2720 2509 2448 2573 
Q 2176 2637 1913 2691 
Q 1651 2746 1443 2829 
Q 1235 2912 1110 3043 
Q 986 3174 986 3386 
Q 986 3610 1072 3760 
Q 1158 3910 1302 4000 
Q 1446 4090 1632 4128 
Q 1818 4166 2010 4166 
Q 2483 4166 2787 3945 
Q 3091 3725 3142 3232 
z
" transform="scale(0.015625)"/>
     </defs>
     <use xlink:href="#HelveticaNeue-53"/>
     <use xlink:href="#HelveticaNeue-6c" x="64.799988"/>
     <use xlink:href="#HelveticaNeue-65" x="86.999985"/>
     <use xlink:href="#HelveticaNeue-65" x="140.699982"/>
     <use xlink:href="#HelveticaNeue-70" x="194.399979"/>
     <use xlink:href="#HelveticaNeue-20" x="253.699966"/>
     <use xlink:href="#HelveticaNeue-61" x="281.499954"/>
     <use xlink:href="#HelveticaNeue-70" x="335.199951"/>
     <use xlink:href="#HelveticaNeue-6e" x="394.499939"/>
     <use xlink:href="#HelveticaNeue-6f" x="450.09993"/>
     <use xlink:href="#HelveticaNeue-65" x="507.499924"/>
     <use xlink:href="#HelveticaNeue-61" x="561.199921"/>
    </g>
   </g>
   <g id="text_41">
    <!-- vs hospital records -->
    <g style="fill: #898781" transform="translate(99.18 91.052161) scale(0.07 -0.07)">
     <use xlink:href="#HelveticaNeue-76"/>
     <use xlink:href="#HelveticaNeue-73" x="49.999985"/>
     <use xlink:href="#HelveticaNeue-20" x="99.999969"/>
     <use xlink:href="#HelveticaNeue-68" x="127.799957"/>
     <use xlink:href="#HelveticaNeue-6f" x="183.399948"/>
     <use xlink:href="#HelveticaNeue-73" x="240.799942"/>
     <use xlink:href="#HelveticaNeue-70" x="290.799927"/>
     <use xlink:href="#HelveticaNeue-69" x="350.099915"/>
     <use xlink:href="#HelveticaNeue-74" x="372.299911"/>
     <use xlink:href="#HelveticaNeue-61" x="403.799896"/>
     <use xlink:href="#HelveticaNeue-6c" x="457.499893"/>
     <use xlink:href="#HelveticaNeue-20" x="479.69989"/>
     <use xlink:href="#HelveticaNeue-72" x="507.499878"/>
     <use xlink:href="#HelveticaNeue-65" x="539.049866"/>
     <use xlink:href="#HelveticaNeue-63" x="592.749863"/>
     <use xlink:href="#HelveticaNeue-6f" x="646.44986"/>
     <use xlink:href="#HelveticaNeue-72" x="703.849854"/>
     <use xlink:href="#HelveticaNeue-64" x="735.399841"/>
     <use xlink:href="#HelveticaNeue-73" x="794.699829"/>
    </g>
   </g>
   <g id="text_42">
    <!-- Insomnia -->
    <g style="fill: #0b0b0b" transform="translate(7.2 123.868576) scale(0.076 -0.076)">
     <defs>
      <path id="HelveticaNeue-49" d="M 525 4570 
L 525 0 
L 1133 0 
L 1133 4570 
L 525 4570 
z
" transform="scale(0.015625)"/>
     </defs>
     <use xlink:href="#HelveticaNeue-49"/>
     <use xlink:href="#HelveticaNeue-6e" x="25.899994"/>
     <use xlink:href="#HelveticaNeue-73" x="81.499985"/>
     <use xlink:href="#HelveticaNeue-6f" x="131.499969"/>
     <use xlink:href="#HelveticaNeue-6d" x="188.899963"/>
     <use xlink:href="#HelveticaNeue-6e" x="274.199951"/>
     <use xlink:href="#HelveticaNeue-69" x="329.799942"/>
     <use xlink:href="#HelveticaNeue-61" x="351.999939"/>
    </g>
   </g>
   <g id="text_43">
    <!-- vs insomnia (F51.0, G47.0) -->
    <g style="fill: #898781" transform="translate(99.18 123.772529) scale(0.07 -0.07)">
     <use xlink:href="#HelveticaNeue-76"/>
     <use xlink:href="#HelveticaNeue-73" x="49.999985"/>
     <use xlink:href="#HelveticaNeue-20" x="99.999969"/>
     <use xlink:href="#HelveticaNeue-69" x="127.799957"/>
     <use xlink:href="#HelveticaNeue-6e" x="149.999954"/>
     <use xlink:href="#HelveticaNeue-73" x="205.599945"/>
     <use xlink:href="#HelveticaNeue-6f" x="255.59993"/>
     <use xlink:href="#HelveticaNeue-6d" x="312.999924"/>
     <use xlink:href="#HelveticaNeue-6e" x="398.299911"/>
     <use xlink:href="#HelveticaNeue-69" x="453.899902"/>
     <use xlink:href="#HelveticaNeue-61" x="476.099899"/>
     <use xlink:href="#HelveticaNeue-20" x="529.799896"/>
     <use xlink:href="#HelveticaNeue-28" x="557.599884"/>
     <use xlink:href="#HelveticaNeue-46" x="583.499878"/>
     <use xlink:href="#HelveticaNeue-35" x="640.899872"/>
     <use xlink:href="#HelveticaNeue-31" x="696.499863"/>
     <use xlink:href="#HelveticaNeue-2e" x="752.099854"/>
     <use xlink:href="#HelveticaNeue-30" x="779.899841"/>
     <use xlink:href="#HelveticaNeue-2c" x="835.499832"/>
     <use xlink:href="#HelveticaNeue-20" x="863.29982"/>
     <use xlink:href="#HelveticaNeue-47" x="891.099808"/>
     <use xlink:href="#HelveticaNeue-34" x="966.999802"/>
     <use xlink:href="#HelveticaNeue-37" x="1022.599792"/>
     <use xlink:href="#HelveticaNeue-2e" x="1078.199783"/>
     <use xlink:href="#HelveticaNeue-30" x="1105.999771"/>
     <use xlink:href="#HelveticaNeue-29" x="1161.599762"/>
    </g>
   </g>
   <g id="text_44">
    <!-- Constipation -->
    <g style="fill: #0b0b0b" transform="translate(7.2 147.262205) scale(0.076 -0.076)">
     <defs>
      <path id="HelveticaNeue-43" d="M 3712 3194 
L 4320 3194 
Q 4269 3558 4102 3836 
Q 3936 4115 3686 4300 
Q 3437 4486 3117 4582 
Q 2797 4678 2438 4678 
Q 1914 4678 1507 4489 
Q 1101 4301 829 3974 
Q 557 3648 416 3209 
Q 275 2771 275 2272 
Q 275 1773 406 1337 
Q 538 902 800 582 
Q 1062 262 1459 80 
Q 1856 -102 2387 -102 
Q 3264 -102 3769 378 
Q 4275 858 4365 1722 
L 3757 1722 
Q 3738 1440 3642 1197 
Q 3546 954 3376 778 
Q 3206 602 2972 502 
Q 2739 403 2438 403 
Q 2029 403 1734 556 
Q 1440 710 1251 969 
Q 1062 1229 972 1577 
Q 883 1926 883 2317 
Q 883 2675 972 3008 
Q 1062 3341 1251 3600 
Q 1440 3859 1731 4012 
Q 2022 4166 2432 4166 
Q 2912 4166 3261 3923 
Q 3610 3680 3712 3194 
z
" transform="scale(0.015625)"/>
     </defs>
     <use xlink:href="#HelveticaNeue-43"/>
     <use xlink:href="#HelveticaNeue-6f" x="72.199982"/>
     <use xlink:href="#HelveticaNeue-6e" x="129.599976"/>
     <use xlink:href="#HelveticaNeue-73" x="185.199966"/>
     <use xlink:href="#HelveticaNeue-74" x="235.199951"/>
     <use xlink:href="#HelveticaNeue-69" x="266.699936"/>
     <use xlink:href="#HelveticaNeue-70" x="288.899933"/>
     <use xlink:href="#HelveticaNeue-61" x="348.199921"/>
     <use xlink:href="#HelveticaNeue-74" x="401.899918"/>
     <use xlink:href="#HelveticaNeue-69" x="433.399902"/>
     <use xlink:href="#HelveticaNeue-6f" x="455.599899"/>
     <use xlink:href="#HelveticaNeue-6e" x="512.999893"/>
    </g>
   </g>
   <g id="text_45">
    <!-- vs constipation or laxatives -->
    <g style="fill: #898781" transform="translate(99.18 147.04297) scale(0.07 -0.07)">
     <defs>
      <path id="HelveticaNeue-78" d="M 1299 1741 
L 58 0 
L 717 0 
L 1638 1370 
L 2560 0 
L 3258 0 
L 1978 1786 
L 3117 3309 
L 2464 3309 
L 1638 2150 
L 845 3309 
L 147 3309 
L 1299 1741 
z
" transform="scale(0.015625)"/>
     </defs>
     <use xlink:href="#HelveticaNeue-76"/>
     <use xlink:href="#HelveticaNeue-73" x="49.999985"/>
     <use xlink:href="#HelveticaNeue-20" x="99.999969"/>
     <use xlink:href="#HelveticaNeue-63" x="127.799957"/>
     <use xlink:href="#HelveticaNeue-6f" x="181.499954"/>
     <use xlink:href="#HelveticaNeue-6e" x="238.899948"/>
     <use xlink:href="#HelveticaNeue-73" x="294.499939"/>
     <use xlink:href="#HelveticaNeue-74" x="344.499924"/>
     <use xlink:href="#HelveticaNeue-69" x="375.999908"/>
     <use xlink:href="#HelveticaNeue-70" x="398.199905"/>
     <use xlink:href="#HelveticaNeue-61" x="457.499893"/>
     <use xlink:href="#HelveticaNeue-74" x="511.19989"/>
     <use xlink:href="#HelveticaNeue-69" x="542.699875"/>
     <use xlink:href="#HelveticaNeue-6f" x="564.899872"/>
     <use xlink:href="#HelveticaNeue-6e" x="622.299866"/>
     <use xlink:href="#HelveticaNeue-20" x="677.899857"/>
     <use xlink:href="#HelveticaNeue-6f" x="705.699844"/>
     <use xlink:href="#HelveticaNeue-72" x="763.099838"/>
     <use xlink:href="#HelveticaNeue-20" x="796.399826"/>
     <use xlink:href="#HelveticaNeue-6c" x="824.199814"/>
     <use xlink:href="#HelveticaNeue-61" x="846.399811"/>
     <use xlink:href="#HelveticaNeue-78" x="900.099808"/>
     <use xlink:href="#HelveticaNeue-61" x="951.899796"/>
     <use xlink:href="#HelveticaNeue-74" x="1005.599792"/>
     <use xlink:href="#HelveticaNeue-69" x="1037.099777"/>
     <use xlink:href="#HelveticaNeue-76" x="1059.299774"/>
     <use xlink:href="#HelveticaNeue-65" x="1109.299759"/>
     <use xlink:href="#HelveticaNeue-73" x="1162.999756"/>
    </g>
   </g>
   <g id="text_46">
    <!-- ADHD -->
    <g style="fill: #0b0b0b" transform="translate(7.2 170.527583) scale(0.076 -0.076)">
     <defs>
      <path id="HelveticaNeue-44" d="M 1107 512 
L 1107 4058 
L 2131 4058 
Q 2554 4058 2842 3939 
Q 3130 3821 3312 3593 
Q 3494 3366 3574 3043 
Q 3654 2720 3654 2310 
Q 3654 1888 3568 1590 
Q 3482 1293 3347 1094 
Q 3213 896 3043 781 
Q 2874 666 2701 605 
Q 2528 544 2374 528 
Q 2221 512 2118 512 
L 1107 512 
z
M 499 4570 
L 499 0 
L 2067 0 
Q 2637 0 3053 160 
Q 3469 320 3737 624 
Q 4006 928 4134 1373 
Q 4262 1818 4262 2394 
Q 4262 3494 3692 4032 
Q 3123 4570 2067 4570 
L 499 4570 
z
" transform="scale(0.015625)"/>
      <path id="HelveticaNeue-48" d="M 499 4570 
L 499 0 
L 1107 0 
L 1107 2093 
L 3514 2093 
L 3514 0 
L 4122 0 
L 4122 4570 
L 3514 4570 
L 3514 2605 
L 1107 2605 
L 1107 4570 
L 499 4570 
z
" transform="scale(0.015625)"/>
     </defs>
     <use xlink:href="#HelveticaNeue-41"/>
     <use xlink:href="#HelveticaNeue-44" x="64.799988"/>
     <use xlink:href="#HelveticaNeue-48" x="135.199982"/>
     <use xlink:href="#HelveticaNeue-44" x="207.399963"/>
    </g>
   </g>
   <g id="text_47">
    <!-- vs F90.0 -->
    <g style="fill: #898781" transform="translate(99.18 170.372474) scale(0.07 -0.07)">
     <use xlink:href="#HelveticaNeue-76"/>
     <use xlink:href="#HelveticaNeue-73" x="49.999985"/>
     <use xlink:href="#HelveticaNeue-20" x="99.999969"/>
     <use xlink:href="#HelveticaNeue-46" x="127.799957"/>
     <use xlink:href="#HelveticaNeue-39" x="185.199951"/>
     <use xlink:href="#HelveticaNeue-30" x="240.799942"/>
     <use xlink:href="#HelveticaNeue-2e" x="296.399933"/>
     <use xlink:href="#HelveticaNeue-30" x="324.199921"/>
    </g>
   </g>
   <g id="LineCollection_23">
    <path d="M 144.54 24.38653 
L 144.54 33.718332 
" clip-path="url(#p74f1c99ddd)" style="fill: none; stroke: #52514e; stroke-width: 0.5"/>
    <path d="M 144.54 33.718332 
L 144.54 43.050134 
" clip-path="url(#p74f1c99ddd)" style="fill: none; stroke: #52514e; stroke-width: 0.5"/>
    <path d="M 144.54 43.050134 
L 144.54 52.381935 
" clip-path="url(#p74f1c99ddd)" style="fill: none; stroke: #52514e; stroke-width: 0.5"/>
    <path d="M 144.54 52.381935 
L 144.54 61.713737 
" clip-path="url(#p74f1c99ddd)" style="fill: none; stroke: #52514e; stroke-width: 0.5"/>
    <path d="M 144.54 61.713737 
L 144.54 71.045538 
" clip-path="url(#p74f1c99ddd)" style="fill: none; stroke: #52514e; stroke-width: 0.5"/>
    <path d="M 144.54 71.045538 
L 144.54 80.37734 
" clip-path="url(#p74f1c99ddd)" style="fill: none; stroke: #52514e; stroke-width: 0.5"/>
    <path d="M 144.54 94.375042 
L 144.54 103.706844 
" clip-path="url(#p74f1c99ddd)" style="fill: none; stroke: #52514e; stroke-width: 0.5"/>
    <path d="M 144.54 103.706844 
L 144.54 113.038645 
" clip-path="url(#p74f1c99ddd)" style="fill: none; stroke: #52514e; stroke-width: 0.5"/>
    <path d="M 144.54 127.036348 
L 144.54 136.368149 
" clip-path="url(#p74f1c99ddd)" style="fill: none; stroke: #52514e; stroke-width: 0.5"/>
    <path d="M 144.54 150.365852 
L 144.54 159.697653 
" clip-path="url(#p74f1c99ddd)" style="fill: none; stroke: #52514e; stroke-width: 0.5"/>
    <path d="M 144.54 173.695356 
L 144.54 183.027157 
" clip-path="url(#p74f1c99ddd)" style="fill: none; stroke: #52514e; stroke-width: 0.5"/>
   </g>
   <g id="text_48">
    <!-- shift -->
    <g style="fill: #0b0b0b" transform="translate(196.636056 12.198437) scale(0.07 -0.07)">
     <use xlink:href="#HelveticaNeue-73"/>
     <use xlink:href="#HelveticaNeue-68" x="49.999985"/>
     <use xlink:href="#HelveticaNeue-69" x="105.599976"/>
     <use xlink:href="#HelveticaNeue-66" x="127.799973"/>
     <use xlink:href="#HelveticaNeue-74" x="157.399963"/>
    </g>
   </g>
   <g id="text_49">
    <!-- catchable -->
    <g style="fill: #0b0b0b" transform="translate(215.548744 12.198437) scale(0.07 -0.07)">
     <use xlink:href="#HelveticaNeue-63"/>
     <use xlink:href="#HelveticaNeue-61" x="53.699997"/>
     <use xlink:href="#HelveticaNeue-74" x="107.399994"/>
     <use xlink:href="#HelveticaNeue-63" x="138.899979"/>
     <use xlink:href="#HelveticaNeue-68" x="192.599976"/>
     <use xlink:href="#HelveticaNeue-61" x="248.199966"/>
     <use xlink:href="#HelveticaNeue-62" x="301.899963"/>
     <use xlink:href="#HelveticaNeue-6c" x="361.199951"/>
     <use xlink:href="#HelveticaNeue-65" x="383.399948"/>
    </g>
   </g>
   <g id="LineCollection_24">
    <path d="M 144.54 29.052431 
L 135.094877 29.052431 
" clip-path="url(#p74f1c99ddd)" style="fill: none; stroke: #6a48c4"/>
   </g>
   <g id="LineCollection_25">
    <path d="M 144.54 38.384233 
L 133.763342 38.384233 
" clip-path="url(#p74f1c99ddd)" style="fill: none; stroke: #6a48c4"/>
   </g>
   <g id="LineCollection_26">
    <path d="M 144.54 47.716034 
L 130.141858 47.716034 
" clip-path="url(#p74f1c99ddd)" style="fill: none; stroke: #6a48c4; stroke-width: 1.5"/>
   </g>
   <g id="LineCollection_27">
    <path d="M 144.54 57.047836 
L 144.210774 57.047836 
" clip-path="url(#p74f1c99ddd)" style="fill: none; stroke: #6a48c4"/>
   </g>
   <g id="LineCollection_28">
    <path d="M 144.54 66.379638 
L 139.440658 66.379638 
" clip-path="url(#p74f1c99ddd)" style="fill: none; stroke: #6a48c4"/>
   </g>
   <g id="LineCollection_29">
    <path d="M 144.54 75.711439 
L 144.598529 75.711439 
" clip-path="url(#p74f1c99ddd)" style="fill: none; stroke: #6a48c4"/>
   </g>
   <g id="LineCollection_30">
    <path d="M 144.54 99.040943 
L 143.603535 99.040943 
" clip-path="url(#p74f1c99ddd)" style="fill: none; stroke: #6a48c4"/>
   </g>
   <g id="LineCollection_31">
    <path d="M 144.54 108.372745 
L 146.508039 108.372745 
" clip-path="url(#p74f1c99ddd)" style="fill: none; stroke: #6a48c4; stroke-width: 1.5"/>
   </g>
   <g id="LineCollection_32">
    <path d="M 144.54 131.702248 
L 151.373265 131.702248 
" clip-path="url(#p74f1c99ddd)" style="fill: none; stroke: #6a48c4"/>
   </g>
   <g id="LineCollection_33">
    <path d="M 144.54 155.031752 
L 143.830335 155.031752 
" clip-path="url(#p74f1c99ddd)" style="fill: none; stroke: #6a48c4"/>
   </g>
   <g id="LineCollection_34">
    <path d="M 144.54 178.361256 
L 145.732529 178.361256 
" clip-path="url(#p74f1c99ddd)" style="fill: none; stroke: #6a48c4"/>
   </g>
   <g id="PathCollection_1">
    <defs>
     <path id="m7fb552d1fb" d="M 0 2.12132 
C 0.562581 2.12132 1.102195 1.897805 1.5 1.5 
C 1.897805 1.102195 2.12132 0.562581 2.12132 0 
C 2.12132 -0.562581 1.897805 -1.102195 1.5 -1.5 
C 1.102195 -1.897805 0.562581 -2.12132 0 -2.12132 
C -0.562581 -2.12132 -1.102195 -1.897805 -1.5 -1.5 
C -1.897805 -1.102195 -2.12132 -0.562581 -2.12132 0 
C -2.12132 0.562581 -1.897805 1.102195 -1.5 1.5 
C -1.102195 1.897805 -0.562581 2.12132 0 2.12132 
z
" style="stroke: #6a48c4"/>
    </defs>
    <g clip-path="url(#p74f1c99ddd)">
     <use xlink:href="#m7fb552d1fb" x="135.094877" y="29.052431" style="fill: #ffffff; stroke: #6a48c4"/>
    </g>
   </g>
   <g id="PathCollection_2">
    <g clip-path="url(#p74f1c99ddd)">
     <use xlink:href="#m7fb552d1fb" x="133.763342" y="38.384233" style="fill: #ffffff; stroke: #6a48c4"/>
    </g>
   </g>
   <g id="PathCollection_3">
    <defs>
     <path id="m701d632108" d="M 0 2.12132 
C 0.562581 2.12132 1.102195 1.897805 1.5 1.5 
C 1.897805 1.102195 2.12132 0.562581 2.12132 0 
C 2.12132 -0.562581 1.897805 -1.102195 1.5 -1.5 
C 1.102195 -1.897805 0.562581 -2.12132 0 -2.12132 
C -0.562581 -2.12132 -1.102195 -1.897805 -1.5 -1.5 
C -1.897805 -1.102195 -2.12132 -0.562581 -2.12132 0 
C -2.12132 0.562581 -1.897805 1.102195 -1.5 1.5 
C -1.102195 1.897805 -0.562581 2.12132 0 2.12132 
z
" style="stroke: #6a48c4"/>
    </defs>
    <g clip-path="url(#p74f1c99ddd)">
     <use xlink:href="#m701d632108" x="130.141858" y="47.716034" style="fill: #6a48c4; stroke: #6a48c4"/>
    </g>
   </g>
   <g id="PathCollection_4">
    <g clip-path="url(#p74f1c99ddd)">
     <use xlink:href="#m7fb552d1fb" x="144.210774" y="57.047836" style="fill: #ffffff; stroke: #6a48c4"/>
    </g>
   </g>
   <g id="PathCollection_5">
    <g clip-path="url(#p74f1c99ddd)">
     <use xlink:href="#m7fb552d1fb" x="139.440658" y="66.379638" style="fill: #ffffff; stroke: #6a48c4"/>
    </g>
   </g>
   <g id="PathCollection_6">
    <g clip-path="url(#p74f1c99ddd)">
     <use xlink:href="#m7fb552d1fb" x="144.598529" y="75.711439" style="fill: #ffffff; stroke: #6a48c4"/>
    </g>
   </g>
   <g id="PathCollection_7">
    <g clip-path="url(#p74f1c99ddd)">
     <use xlink:href="#m7fb552d1fb" x="143.603535" y="99.040943" style="fill: #ffffff; stroke: #6a48c4"/>
    </g>
   </g>
   <g id="PathCollection_8">
    <g clip-path="url(#p74f1c99ddd)">
     <use xlink:href="#m701d632108" x="146.508039" y="108.372745" style="fill: #6a48c4; stroke: #6a48c4"/>
    </g>
   </g>
   <g id="PathCollection_9">
    <g clip-path="url(#p74f1c99ddd)">
     <use xlink:href="#m7fb552d1fb" x="151.373265" y="131.702248" style="fill: #ffffff; stroke: #6a48c4"/>
    </g>
   </g>
   <g id="PathCollection_10">
    <g clip-path="url(#p74f1c99ddd)">
     <use xlink:href="#m7fb552d1fb" x="143.830335" y="155.031752" style="fill: #ffffff; stroke: #6a48c4"/>
    </g>
   </g>
   <g id="PathCollection_11">
    <g clip-path="url(#p74f1c99ddd)">
     <use xlink:href="#m7fb552d1fb" x="145.732529" y="178.361256" style="fill: #ffffff; stroke: #6a48c4"/>
    </g>
   </g>
  </g>
  <g id="axes_2">
   <g id="LineCollection_35">
    <path d="M 8.4096 223.801058 
L 30.1824 223.801058 
" clip-path="url(#pc85a3259ab)" style="fill: none; stroke: #efebe2; stroke-width: 6.5"/>
   </g>
   <g id="LineCollection_36">
    <path d="M 14.4576 223.801058 
L 24.1344 223.801058 
" clip-path="url(#pc85a3259ab)" style="fill: none; stroke: #d8d0bf; stroke-width: 6.5"/>
   </g>
   <g id="text_50">
    <!-- Dark: shifts the test cannot tell from chance (1.96 SE). -->
    <g style="fill: #52514e" transform="translate(33.8112 221.612245) scale(0.07 -0.07)">
     <defs>
      <path id="HelveticaNeue-6b" d="M 442 4570 
L 442 0 
L 986 0 
L 986 1254 
L 1498 1728 
L 2630 0 
L 3322 0 
L 1914 2106 
L 3226 3309 
L 2496 3309 
L 986 1862 
L 986 4570 
L 442 4570 
z
" transform="scale(0.015625)"/>
      <path id="HelveticaNeue-3a" d="M 1242 2598 
L 1242 3309 
L 531 3309 
L 531 2598 
L 1242 2598 
z
M 531 710 
L 531 0 
L 1242 0 
L 1242 710 
L 531 710 
z
" transform="scale(0.015625)"/>
      <path id="HelveticaNeue-36" d="M 2650 3379 
L 3194 3379 
Q 3142 3942 2809 4240 
Q 2477 4538 1914 4538 
Q 1427 4538 1107 4333 
Q 787 4128 595 3789 
Q 403 3450 323 3011 
Q 243 2573 243 2106 
Q 243 1747 297 1363 
Q 352 979 518 659 
Q 685 339 992 134 
Q 1299 -70 1805 -70 
Q 2234 -70 2525 74 
Q 2816 218 2992 438 
Q 3168 659 3245 928 
Q 3322 1197 3322 1446 
Q 3322 1760 3226 2029 
Q 3130 2298 2954 2496 
Q 2778 2694 2518 2806 
Q 2259 2918 1933 2918 
Q 1562 2918 1277 2777 
Q 992 2637 800 2323 
L 787 2336 
Q 794 2598 838 2899 
Q 883 3200 1001 3459 
Q 1120 3718 1331 3888 
Q 1542 4058 1888 4058 
Q 2214 4058 2412 3872 
Q 2611 3686 2650 3379 
z
M 1830 2438 
Q 2061 2438 2233 2355 
Q 2406 2272 2521 2134 
Q 2637 1997 2691 1808 
Q 2746 1619 2746 1408 
Q 2746 1210 2685 1027 
Q 2624 845 2509 704 
Q 2394 563 2224 483 
Q 2054 403 1830 403 
Q 1606 403 1430 483 
Q 1254 563 1136 697 
Q 1018 832 954 1017 
Q 890 1203 890 1414 
Q 890 1626 950 1814 
Q 1011 2003 1132 2140 
Q 1254 2278 1427 2358 
Q 1600 2438 1830 2438 
z
" transform="scale(0.015625)"/>
     </defs>
     <use xlink:href="#HelveticaNeue-44"/>
     <use xlink:href="#HelveticaNeue-61" x="70.399994"/>
     <use xlink:href="#HelveticaNeue-72" x="124.099991"/>
     <use xlink:href="#HelveticaNeue-6b" x="157.399979"/>
     <use xlink:href="#HelveticaNeue-3a" x="209.299973"/>
     <use xlink:href="#HelveticaNeue-20" x="237.09996"/>
     <use xlink:href="#HelveticaNeue-73" x="264.899948"/>
     <use xlink:href="#HelveticaNeue-68" x="314.899933"/>
     <use xlink:href="#HelveticaNeue-69" x="370.499924"/>
     <use xlink:href="#HelveticaNeue-66" x="392.699921"/>
     <use xlink:href="#HelveticaNeue-74" x="422.299911"/>
     <use xlink:href="#HelveticaNeue-73" x="453.799896"/>
     <use xlink:href="#HelveticaNeue-20" x="503.799881"/>
     <use xlink:href="#HelveticaNeue-74" x="531.599869"/>
     <use xlink:href="#HelveticaNeue-68" x="563.099854"/>
     <use xlink:href="#HelveticaNeue-65" x="618.699844"/>
     <use xlink:href="#HelveticaNeue-20" x="672.399841"/>
     <use xlink:href="#HelveticaNeue-74" x="700.199829"/>
     <use xlink:href="#HelveticaNeue-65" x="731.699814"/>
     <use xlink:href="#HelveticaNeue-73" x="785.399811"/>
     <use xlink:href="#HelveticaNeue-74" x="835.399796"/>
     <use xlink:href="#HelveticaNeue-20" x="866.89978"/>
     <use xlink:href="#HelveticaNeue-63" x="894.699768"/>
     <use xlink:href="#HelveticaNeue-61" x="948.399765"/>
     <use xlink:href="#HelveticaNeue-6e" x="1002.099762"/>
     <use xlink:href="#HelveticaNeue-6e" x="1057.699753"/>
     <use xlink:href="#HelveticaNeue-6f" x="1113.299744"/>
     <use xlink:href="#HelveticaNeue-74" x="1170.699738"/>
     <use xlink:href="#HelveticaNeue-20" x="1202.199722"/>
     <use xlink:href="#HelveticaNeue-74" x="1229.99971"/>
     <use xlink:href="#HelveticaNeue-65" x="1261.499695"/>
     <use xlink:href="#HelveticaNeue-6c" x="1315.199692"/>
     <use xlink:href="#HelveticaNeue-6c" x="1337.399689"/>
     <use xlink:href="#HelveticaNeue-20" x="1359.599686"/>
     <use xlink:href="#HelveticaNeue-66" x="1387.399673"/>
     <use xlink:href="#HelveticaNeue-72" x="1416.999664"/>
     <use xlink:href="#HelveticaNeue-6f" x="1448.549652"/>
     <use xlink:href="#HelveticaNeue-6d" x="1505.949646"/>
     <use xlink:href="#HelveticaNeue-20" x="1591.249634"/>
     <use xlink:href="#HelveticaNeue-63" x="1619.049622"/>
     <use xlink:href="#HelveticaNeue-68" x="1672.749619"/>
     <use xlink:href="#HelveticaNeue-61" x="1728.349609"/>
     <use xlink:href="#HelveticaNeue-6e" x="1782.049606"/>
     <use xlink:href="#HelveticaNeue-63" x="1837.649597"/>
     <use xlink:href="#HelveticaNeue-65" x="1891.349594"/>
     <use xlink:href="#HelveticaNeue-20" x="1945.049591"/>
     <use xlink:href="#HelveticaNeue-28" x="1972.849579"/>
     <use xlink:href="#HelveticaNeue-31" x="1998.749573"/>
     <use xlink:href="#HelveticaNeue-2e" x="2054.349564"/>
     <use xlink:href="#HelveticaNeue-39" x="2082.149551"/>
     <use xlink:href="#HelveticaNeue-36" x="2137.749542"/>
     <use xlink:href="#HelveticaNeue-20" x="2193.349533"/>
     <use xlink:href="#HelveticaNeue-53" x="2221.149521"/>
     <use xlink:href="#HelveticaNeue-45" x="2285.949509"/>
     <use xlink:href="#HelveticaNeue-29" x="2347.0495"/>
     <use xlink:href="#HelveticaNeue-2e" x="2372.949493"/>
    </g>
    <!-- Pale: shift caught 4 times in 5. Filled dot: p &lt; 0.05. Cut at 0.6. -->
    <g style="fill: #52514e" transform="translate(33.8112 229.642995) scale(0.07 -0.07)">
     <defs>
      <path id="HelveticaNeue-50" d="M 1107 2381 
L 1107 4058 
L 2298 4058 
Q 2816 4058 3056 3843 
Q 3296 3629 3296 3219 
Q 3296 2810 3056 2592 
Q 2816 2374 2298 2381 
L 1107 2381 
z
M 499 4570 
L 499 0 
L 1107 0 
L 1107 1869 
L 2502 1869 
Q 3194 1862 3549 2220 
Q 3904 2579 3904 3219 
Q 3904 3859 3549 4214 
Q 3194 4570 2502 4570 
L 499 4570 
z
" transform="scale(0.015625)"/>
      <path id="HelveticaNeue-3c" d="M 3546 2854 
L 3546 3290 
L 294 1818 
L 294 1421 
L 3546 -45 
L 3546 384 
L 826 1619 
L 3546 2854 
z
" transform="scale(0.015625)"/>
     </defs>
     <use xlink:href="#HelveticaNeue-50"/>
     <use xlink:href="#HelveticaNeue-61" x="64.799988"/>
     <use xlink:href="#HelveticaNeue-6c" x="118.499985"/>
     <use xlink:href="#HelveticaNeue-65" x="140.699982"/>
     <use xlink:href="#HelveticaNeue-3a" x="194.399979"/>
     <use xlink:href="#HelveticaNeue-20" x="222.199966"/>
     <use xlink:href="#HelveticaNeue-73" x="249.999954"/>
     <use xlink:href="#HelveticaNeue-68" x="299.999939"/>
     <use xlink:href="#HelveticaNeue-69" x="355.59993"/>
     <use xlink:href="#HelveticaNeue-66" x="377.799927"/>
     <use xlink:href="#HelveticaNeue-74" x="407.399918"/>
     <use xlink:href="#HelveticaNeue-20" x="438.899902"/>
     <use xlink:href="#HelveticaNeue-63" x="466.69989"/>
     <use xlink:href="#HelveticaNeue-61" x="520.399887"/>
     <use xlink:href="#HelveticaNeue-75" x="574.099884"/>
     <use xlink:href="#HelveticaNeue-67" x="629.699875"/>
     <use xlink:href="#HelveticaNeue-68" x="687.099869"/>
     <use xlink:href="#HelveticaNeue-74" x="742.69986"/>
     <use xlink:href="#HelveticaNeue-20" x="774.199844"/>
     <use xlink:href="#HelveticaNeue-34" x="801.999832"/>
     <use xlink:href="#HelveticaNeue-20" x="857.599823"/>
     <use xlink:href="#HelveticaNeue-74" x="885.399811"/>
     <use xlink:href="#HelveticaNeue-69" x="916.899796"/>
     <use xlink:href="#HelveticaNeue-6d" x="939.099792"/>
     <use xlink:href="#HelveticaNeue-65" x="1024.39978"/>
     <use xlink:href="#HelveticaNeue-73" x="1078.099777"/>
     <use xlink:href="#HelveticaNeue-20" x="1128.099762"/>
     <use xlink:href="#HelveticaNeue-69" x="1155.89975"/>
     <use xlink:href="#HelveticaNeue-6e" x="1178.099747"/>
     <use xlink:href="#HelveticaNeue-20" x="1233.699738"/>
     <use xlink:href="#HelveticaNeue-35" x="1261.499725"/>
     <use xlink:href="#HelveticaNeue-2e" x="1317.099716"/>
     <use xlink:href="#HelveticaNeue-20" x="1344.899704"/>
     <use xlink:href="#HelveticaNeue-46" x="1372.699692"/>
     <use xlink:href="#HelveticaNeue-69" x="1430.099686"/>
     <use xlink:href="#HelveticaNeue-6c" x="1452.299683"/>
     <use xlink:href="#HelveticaNeue-6c" x="1474.49968"/>
     <use xlink:href="#HelveticaNeue-65" x="1496.699677"/>
     <use xlink:href="#HelveticaNeue-64" x="1550.399673"/>
     <use xlink:href="#HelveticaNeue-20" x="1609.699661"/>
     <use xlink:href="#HelveticaNeue-64" x="1637.499649"/>
     <use xlink:href="#HelveticaNeue-6f" x="1696.799637"/>
     <use xlink:href="#HelveticaNeue-74" x="1754.199631"/>
     <use xlink:href="#HelveticaNeue-3a" x="1785.699615"/>
     <use xlink:href="#HelveticaNeue-20" x="1813.499603"/>
     <use xlink:href="#HelveticaNeue-70" x="1841.299591"/>
     <use xlink:href="#HelveticaNeue-20" x="1900.599579"/>
     <use xlink:href="#HelveticaNeue-3c" x="1928.399567"/>
     <use xlink:href="#HelveticaNeue-20" x="1988.399551"/>
     <use xlink:href="#HelveticaNeue-30" x="2016.199539"/>
     <use xlink:href="#HelveticaNeue-2e" x="2071.79953"/>
     <use xlink:href="#HelveticaNeue-30" x="2099.599518"/>
     <use xlink:href="#HelveticaNeue-35" x="2155.199509"/>
     <use xlink:href="#HelveticaNeue-2e" x="2210.7995"/>
     <use xlink:href="#HelveticaNeue-20" x="2238.599487"/>
     <use xlink:href="#HelveticaNeue-43" x="2266.399475"/>
     <use xlink:href="#HelveticaNeue-75" x="2338.599457"/>
     <use xlink:href="#HelveticaNeue-74" x="2394.199448"/>
     <use xlink:href="#HelveticaNeue-20" x="2425.699432"/>
     <use xlink:href="#HelveticaNeue-61" x="2453.49942"/>
     <use xlink:href="#HelveticaNeue-74" x="2507.199417"/>
     <use xlink:href="#HelveticaNeue-20" x="2538.699402"/>
     <use xlink:href="#HelveticaNeue-30" x="2566.49939"/>
     <use xlink:href="#HelveticaNeue-2e" x="2622.09938"/>
     <use xlink:href="#HelveticaNeue-36" x="2649.899368"/>
     <use xlink:href="#HelveticaNeue-2e" x="2705.499359"/>
    </g>
   </g>
  </g>
 </g>
 <defs>
  <clipPath id="p74f1c99ddd">
   <rect x="99.18" y="8.989058" width="90.72" height="178.704"/>
  </clipPath>
  <clipPath id="pc85a3259ab">
   <rect x="7.2" y="214.621058" width="241.92" height="18.36"/>
  </clipPath>
 </defs>
</svg>
