<svg xmlns="http://www.w3.org/2000/svg" width="252.0pt" height="388.40000000000003pt" viewBox="0 0 252.0 388.40000000000003" font-family="Menlo, 'SF Mono', Consolas, 'Liberation Mono', monospace">
<rect width="252.0" height="388.40000000000003" fill="#EEF3F1"/>
<circle cx="13.00" cy="9.50" r="2.50" fill="#EEF3F1" opacity="1.00" stroke="#3A4A51" stroke-width="1.0"/>
<text x="21.00" y="12.00" font-size="7.0" fill="#3A4A51" text-anchor="start" xml:space="preserve">clinical assessment</text>
<line x1="111.07" y1="9.50" x2="121.07" y2="9.50" stroke="#3A4A51" stroke-width="1.1" stroke-linecap="butt" opacity="1.00"/>
<path d="M 123.07,9.50 L 119.07,7.10 L 119.07,11.90 Z" fill="#3A4A51" stroke="none" stroke-width="0.6" stroke-linecap="round" stroke-linejoin="round" opacity="1.00"/>
<text x="127.07" y="12.00" font-size="7.0" fill="#3A4A51" text-anchor="start" xml:space="preserve">health records (EHR)</text>
<line x1="10.00" y1="21.50" x2="20.00" y2="21.50" stroke="#b98500" stroke-width="1.9" stroke-linecap="butt" opacity="1.00"/>
<path d="M 22.00,21.50 L 18.00,19.10 L 18.00,23.90 Z" fill="#b98500" stroke="none" stroke-width="0.6" stroke-linecap="round" stroke-linejoin="round" opacity="1.00"/>
<text x="26.00" y="24.00" font-size="7.0" fill="#3A4A51" text-anchor="start" xml:space="preserve">difference p &lt; 0.05; right: EHR higher</text>
<line x1="143.20" y1="34.00" x2="143.20" y2="360.40" stroke="#CAD6D1" stroke-width="0.5" stroke-linecap="butt" opacity="1.00"/>
<line x1="199.20" y1="34.00" x2="199.20" y2="360.40" stroke="#CAD6D1" stroke-width="0.5" stroke-linecap="butt" opacity="1.00"/>
<text x="126.00" y="43.50" font-size="7.0" fill="#3A4A51" text-anchor="end" xml:space="preserve">Generalized, strict</text>
<circle cx="142.90" cy="41.00" r="2.00" fill="#EEF3F1" opacity="1.00" stroke="#3A4A51" stroke-width="0.9"/>
<line x1="144.90" y1="41.00" x2="186.01" y2="41.00" stroke="#8D9C97" stroke-width="1.0" stroke-linecap="butt" opacity="1.00"/>
<path d="M 186.01,41.00 L 181.81,38.60 L 181.81,43.40 Z" fill="#8D9C97" stroke="none" stroke-width="0.6" stroke-linecap="round" stroke-linejoin="round" opacity="1.00"/>
<text x="126.00" y="53.90" font-size="7.0" fill="#14232B" text-anchor="end" xml:space="preserve">Other sleep disorders</text>
<circle cx="172.20" cy="51.40" r="2.00" fill="#EEF3F1" opacity="1.00" stroke="#b98500" stroke-width="0.9"/>
<line x1="174.20" y1="51.40" x2="209.49" y2="51.40" stroke="#b98500" stroke-width="1.8" stroke-linecap="butt" opacity="1.00"/>
<path d="M 209.49,51.40 L 205.29,49.00 L 205.29,53.80 Z" fill="#b98500" stroke="none" stroke-width="0.6" stroke-linecap="round" stroke-linejoin="round" opacity="1.00"/>
<text x="126.00" y="64.30" font-size="7.0" fill="#3A4A51" text-anchor="end" xml:space="preserve">Any (F7), strict controls</text>
<circle cx="165.70" cy="61.80" r="2.00" fill="#EEF3F1" opacity="1.00" stroke="#3A4A51" stroke-width="0.9"/>
<line x1="167.70" y1="61.80" x2="198.77" y2="61.80" stroke="#8D9C97" stroke-width="1.0" stroke-linecap="butt" opacity="1.00"/>
<path d="M 198.77,61.80 L 194.57,59.40 L 194.57,64.20 Z" fill="#8D9C97" stroke="none" stroke-width="0.6" stroke-linecap="round" stroke-linejoin="round" opacity="1.00"/>
<text x="126.00" y="74.70" font-size="7.0" fill="#3A4A51" text-anchor="end" xml:space="preserve">Epilepsy: focal, strict</text>
<circle cx="147.81" cy="72.20" r="2.00" fill="#EEF3F1" opacity="1.00" stroke="#3A4A51" stroke-width="0.9"/>
<line x1="149.81" y1="72.20" x2="179.19" y2="72.20" stroke="#8D9C97" stroke-width="1.0" stroke-linecap="butt" opacity="1.00"/>
<path d="M 179.19,72.20 L 174.99,69.80 L 174.99,74.60 Z" fill="#8D9C97" stroke="none" stroke-width="0.6" stroke-linecap="round" stroke-linejoin="round" opacity="1.00"/>
<text x="126.00" y="85.10" font-size="7.0" fill="#3A4A51" text-anchor="end" xml:space="preserve">Epilepsy: focal</text>
<circle cx="150.84" cy="82.60" r="2.00" fill="#EEF3F1" opacity="1.00" stroke="#3A4A51" stroke-width="0.9"/>
<line x1="152.84" y1="82.60" x2="175.87" y2="82.60" stroke="#8D9C97" stroke-width="1.0" stroke-linecap="butt" opacity="1.00"/>
<path d="M 175.87,82.60 L 171.67,80.20 L 171.67,85.00 Z" fill="#8D9C97" stroke="none" stroke-width="0.6" stroke-linecap="round" stroke-linejoin="round" opacity="1.00"/>
<text x="126.00" y="95.50" font-size="7.0" fill="#3A4A51" text-anchor="end" xml:space="preserve">Epilepsy: focal, mode</text>
<circle cx="148.41" cy="93.00" r="2.00" fill="#EEF3F1" opacity="1.00" stroke="#3A4A51" stroke-width="0.9"/>
<line x1="150.41" y1="93.00" x2="173.04" y2="93.00" stroke="#8D9C97" stroke-width="1.0" stroke-linecap="butt" opacity="1.00"/>
<path d="M 173.04,93.00 L 168.84,90.60 L 168.84,95.40 Z" fill="#8D9C97" stroke="none" stroke-width="0.6" stroke-linecap="round" stroke-linejoin="round" opacity="1.00"/>
<text x="126.00" y="105.90" font-size="7.0" fill="#14232B" text-anchor="end" xml:space="preserve">Epilepsy: any epilepsy</text>
<circle cx="159.16" cy="103.40" r="2.00" fill="#EEF3F1" opacity="1.00" stroke="#b98500" stroke-width="0.9"/>
<line x1="161.16" y1="103.40" x2="182.46" y2="103.40" stroke="#b98500" stroke-width="1.8" stroke-linecap="butt" opacity="1.00"/>
<path d="M 182.46,103.40 L 178.26,101.00 L 178.26,105.80 Z" fill="#b98500" stroke="none" stroke-width="0.6" stroke-linecap="round" stroke-linejoin="round" opacity="1.00"/>
<text x="126.00" y="116.30" font-size="7.0" fill="#3A4A51" text-anchor="end" xml:space="preserve">Other bladder (N32)</text>
<circle cx="162.25" cy="113.80" r="2.00" fill="#EEF3F1" opacity="1.00" stroke="#3A4A51" stroke-width="0.9"/>
<line x1="164.25" y1="113.80" x2="183.73" y2="113.80" stroke="#8D9C97" stroke-width="1.0" stroke-linecap="butt" opacity="1.00"/>
<path d="M 183.73,113.80 L 179.53,111.40 L 179.53,116.20 Z" fill="#8D9C97" stroke="none" stroke-width="0.6" stroke-linecap="round" stroke-linejoin="round" opacity="1.00"/>
<text x="126.00" y="126.70" font-size="7.0" fill="#3A4A51" text-anchor="end" xml:space="preserve">Insomnia (F51.0, G47.0)</text>
<circle cx="186.22" cy="124.20" r="2.00" fill="#EEF3F1" opacity="1.00" stroke="#3A4A51" stroke-width="0.9"/>
<line x1="188.22" y1="124.20" x2="207.61" y2="124.20" stroke="#8D9C97" stroke-width="1.0" stroke-linecap="butt" opacity="1.00"/>
<path d="M 207.61,124.20 L 203.41,121.80 L 203.41,126.60 Z" fill="#8D9C97" stroke="none" stroke-width="0.6" stroke-linecap="round" stroke-linejoin="round" opacity="1.00"/>
<text x="126.00" y="137.10" font-size="7.0" fill="#14232B" text-anchor="end" xml:space="preserve">PTSD</text>
<circle cx="227.17" cy="134.60" r="2.00" fill="#EEF3F1" opacity="1.00" stroke="#b98500" stroke-width="0.9"/>
<line x1="229.17" y1="134.60" x2="244.76" y2="134.60" stroke="#b98500" stroke-width="1.8" stroke-linecap="butt" opacity="1.00"/>
<path d="M 244.76,134.60 L 240.56,132.20 L 240.56,137.00 Z" fill="#b98500" stroke="none" stroke-width="0.6" stroke-linecap="round" stroke-linejoin="round" opacity="1.00"/>
<text x="126.00" y="147.50" font-size="7.0" fill="#3A4A51" text-anchor="end" xml:space="preserve">Nonorganic sleep (F51)</text>
<circle cx="206.20" cy="145.00" r="2.00" fill="#EEF3F1" opacity="1.00" stroke="#3A4A51" stroke-width="0.9"/>
<line x1="208.20" y1="145.00" x2="223.01" y2="145.00" stroke="#8D9C97" stroke-width="1.0" stroke-linecap="butt" opacity="1.00"/>
<path d="M 223.01,145.00 L 218.81,142.60 L 218.81,147.40 Z" fill="#8D9C97" stroke="none" stroke-width="0.6" stroke-linecap="round" stroke-linejoin="round" opacity="1.00"/>
<text x="126.00" y="157.90" font-size="7.0" fill="#3A4A51" text-anchor="end" xml:space="preserve">ADHD: F90.0</text>
<circle cx="211.58" cy="155.40" r="2.00" fill="#EEF3F1" opacity="1.00" stroke="#3A4A51" stroke-width="0.9"/>
<line x1="213.58" y1="155.40" x2="227.64" y2="155.40" stroke="#8D9C97" stroke-width="1.0" stroke-linecap="butt" opacity="1.00"/>
<path d="M 227.64,155.40 L 223.44,153.00 L 223.44,157.80 Z" fill="#8D9C97" stroke="none" stroke-width="0.6" stroke-linecap="round" stroke-linejoin="round" opacity="1.00"/>
<text x="126.00" y="168.30" font-size="7.0" fill="#3A4A51" text-anchor="end" xml:space="preserve">Neurogenic bladder (N31)</text>
<circle cx="177.51" cy="165.80" r="2.00" fill="#EEF3F1" opacity="1.00" stroke="#3A4A51" stroke-width="0.9"/>
<line x1="179.51" y1="165.80" x2="192.64" y2="165.80" stroke="#8D9C97" stroke-width="1.0" stroke-linecap="butt" opacity="1.00"/>
<path d="M 192.64,165.80 L 188.44,163.40 L 188.44,168.20 Z" fill="#8D9C97" stroke="none" stroke-width="0.6" stroke-linecap="round" stroke-linejoin="round" opacity="1.00"/>
<text x="126.00" y="178.70" font-size="7.0" fill="#14232B" text-anchor="end" xml:space="preserve">Constipation or laxatives</text>
<circle cx="185.41" cy="176.20" r="2.00" fill="#EEF3F1" opacity="1.00" stroke="#b98500" stroke-width="0.9"/>
<line x1="187.41" y1="176.20" x2="200.41" y2="176.20" stroke="#b98500" stroke-width="1.8" stroke-linecap="butt" opacity="1.00"/>
<path d="M 200.41,176.20 L 196.21,173.80 L 196.21,178.60 Z" fill="#b98500" stroke="none" stroke-width="0.6" stroke-linecap="round" stroke-linejoin="round" opacity="1.00"/>
<text x="126.00" y="189.10" font-size="7.0" fill="#3A4A51" text-anchor="end" xml:space="preserve">Irritable bowel</text>
<circle cx="192.84" cy="186.60" r="2.00" fill="#EEF3F1" opacity="1.00" stroke="#3A4A51" stroke-width="0.9"/>
<line x1="194.84" y1="186.60" x2="207.22" y2="186.60" stroke="#8D9C97" stroke-width="1.0" stroke-linecap="butt" opacity="1.00"/>
<path d="M 207.22,186.60 L 203.02,184.20 L 203.02,189.00 Z" fill="#8D9C97" stroke="none" stroke-width="0.6" stroke-linecap="round" stroke-linejoin="round" opacity="1.00"/>
<text x="126.00" y="199.50" font-size="7.0" fill="#14232B" text-anchor="end" xml:space="preserve">Reflux</text>
<circle cx="183.84" cy="197.00" r="2.00" fill="#EEF3F1" opacity="1.00" stroke="#b98500" stroke-width="0.9"/>
<line x1="185.84" y1="197.00" x2="198.14" y2="197.00" stroke="#b98500" stroke-width="1.8" stroke-linecap="butt" opacity="1.00"/>
<path d="M 198.14,197.00 L 193.94,194.60 L 193.94,199.40 Z" fill="#b98500" stroke="none" stroke-width="0.6" stroke-linecap="round" stroke-linejoin="round" opacity="1.00"/>
<text x="126.00" y="209.90" font-size="7.0" fill="#3A4A51" text-anchor="end" xml:space="preserve">ADHD: F90, strict controls</text>
<circle cx="214.47" cy="207.40" r="2.00" fill="#EEF3F1" opacity="1.00" stroke="#3A4A51" stroke-width="0.9"/>
<line x1="216.47" y1="207.40" x2="227.93" y2="207.40" stroke="#8D9C97" stroke-width="1.0" stroke-linecap="butt" opacity="1.00"/>
<path d="M 227.93,207.40 L 223.73,205.00 L 223.73,209.80 Z" fill="#8D9C97" stroke="none" stroke-width="0.6" stroke-linecap="round" stroke-linejoin="round" opacity="1.00"/>
<text x="126.00" y="220.30" font-size="7.0" fill="#14232B" text-anchor="end" xml:space="preserve">Any sleep disorder</text>
<circle cx="178.48" cy="217.80" r="2.00" fill="#EEF3F1" opacity="1.00" stroke="#b98500" stroke-width="0.9"/>
<line x1="180.48" y1="217.80" x2="191.77" y2="217.80" stroke="#b98500" stroke-width="1.8" stroke-linecap="butt" opacity="1.00"/>
<path d="M 191.77,217.80 L 187.57,215.40 L 187.57,220.20 Z" fill="#b98500" stroke="none" stroke-width="0.6" stroke-linecap="round" stroke-linejoin="round" opacity="1.00"/>
<text x="126.00" y="230.70" font-size="7.0" fill="#3A4A51" text-anchor="end" xml:space="preserve">Functional bowel (K59)</text>
<circle cx="197.82" cy="228.20" r="2.00" fill="#EEF3F1" opacity="1.00" stroke="#3A4A51" stroke-width="0.9"/>
<line x1="199.82" y1="228.20" x2="209.29" y2="228.20" stroke="#8D9C97" stroke-width="1.0" stroke-linecap="butt" opacity="1.00"/>
<path d="M 209.29,228.20 L 205.09,225.80 L 205.09,230.60 Z" fill="#8D9C97" stroke="none" stroke-width="0.6" stroke-linecap="round" stroke-linejoin="round" opacity="1.00"/>
<text x="126.00" y="241.10" font-size="7.0" fill="#3A4A51" text-anchor="end" xml:space="preserve">Epilepsy: generalized, mode</text>
<circle cx="144.52" cy="238.60" r="2.00" fill="#EEF3F1" opacity="1.00" stroke="#3A4A51" stroke-width="0.9"/>
<line x1="146.52" y1="238.60" x2="155.03" y2="238.60" stroke="#8D9C97" stroke-width="1.0" stroke-linecap="butt" opacity="1.00"/>
<path d="M 155.03,238.60 L 150.83,236.20 L 150.83,241.00 Z" fill="#8D9C97" stroke="none" stroke-width="0.6" stroke-linecap="round" stroke-linejoin="round" opacity="1.00"/>
<text x="126.00" y="251.50" font-size="7.0" fill="#3A4A51" text-anchor="end" xml:space="preserve">+ primary care</text>
<circle cx="174.35" cy="249.00" r="2.00" fill="#EEF3F1" opacity="1.00" stroke="#3A4A51" stroke-width="0.9"/>
<line x1="176.35" y1="249.00" x2="184.61" y2="249.00" stroke="#8D9C97" stroke-width="1.0" stroke-linecap="butt" opacity="1.00"/>
<path d="M 184.61,249.00 L 180.41,246.60 L 180.41,251.40 Z" fill="#8D9C97" stroke="none" stroke-width="0.6" stroke-linecap="round" stroke-linejoin="round" opacity="1.00"/>
<text x="126.00" y="261.90" font-size="7.0" fill="#3A4A51" text-anchor="end" xml:space="preserve">Hospital records</text>
<circle cx="174.10" cy="259.40" r="2.00" fill="#EEF3F1" opacity="1.00" stroke="#3A4A51" stroke-width="0.9"/>
<line x1="176.10" y1="259.40" x2="183.77" y2="259.40" stroke="#8D9C97" stroke-width="1.0" stroke-linecap="butt" opacity="1.00"/>
<path d="M 183.77,259.40 L 179.57,257.00 L 179.57,261.80 Z" fill="#8D9C97" stroke="none" stroke-width="0.6" stroke-linecap="round" stroke-linejoin="round" opacity="1.00"/>
<text x="126.00" y="272.30" font-size="7.0" fill="#3A4A51" text-anchor="end" xml:space="preserve">Epilepsy: generalized</text>
<circle cx="150.82" cy="269.80" r="2.00" fill="#EEF3F1" opacity="1.00" stroke="#3A4A51" stroke-width="0.9"/>
<line x1="152.82" y1="269.80" x2="158.80" y2="269.80" stroke="#8D9C97" stroke-width="1.0" stroke-linecap="butt" opacity="1.00"/>
<path d="M 158.80,269.80 L 154.60,267.40 L 154.60,272.20 Z" fill="#8D9C97" stroke="none" stroke-width="0.6" stroke-linecap="round" stroke-linejoin="round" opacity="1.00"/>
<text x="126.00" y="282.70" font-size="7.0" fill="#3A4A51" text-anchor="end" xml:space="preserve">Functional dyspepsia</text>
<circle cx="199.21" cy="280.20" r="2.00" fill="#EEF3F1" opacity="1.00" stroke="#3A4A51" stroke-width="0.9"/>
<line x1="201.21" y1="280.20" x2="204.61" y2="280.20" stroke="#8D9C97" stroke-width="1.0" stroke-linecap="butt" opacity="1.00"/>
<path d="M 204.61,280.20 L 200.41,277.80 L 200.41,282.60 Z" fill="#8D9C97" stroke="none" stroke-width="0.6" stroke-linecap="round" stroke-linejoin="round" opacity="1.00"/>
<text x="126.00" y="293.10" font-size="7.0" fill="#3A4A51" text-anchor="end" xml:space="preserve">Sleep disorder, unspecified</text>
<circle cx="212.43" cy="290.60" r="2.00" fill="#EEF3F1" opacity="1.00" stroke="#3A4A51" stroke-width="0.9"/>
<line x1="214.43" y1="290.60" x2="212.62" y2="290.60" stroke="#8D9C97" stroke-width="1.0" stroke-linecap="butt" opacity="1.00"/>
<path d="M 212.62,290.60 L 216.82,288.20 L 216.82,293.00 Z" fill="#8D9C97" stroke="none" stroke-width="0.6" stroke-linecap="round" stroke-linejoin="round" opacity="1.00"/>
<text x="126.00" y="303.50" font-size="7.0" fill="#3A4A51" text-anchor="end" xml:space="preserve">Bipolar</text>
<circle cx="197.45" cy="301.00" r="2.00" fill="#EEF3F1" opacity="1.00" stroke="#3A4A51" stroke-width="0.9"/>
<line x1="195.45" y1="301.00" x2="194.98" y2="301.00" stroke="#8D9C97" stroke-width="1.0" stroke-linecap="butt" opacity="1.00"/>
<text x="126.00" y="313.90" font-size="7.0" fill="#3A4A51" text-anchor="end" xml:space="preserve">Schizophrenia</text>
<circle cx="187.72" cy="311.40" r="2.00" fill="#EEF3F1" opacity="1.00" stroke="#3A4A51" stroke-width="0.9"/>
<line x1="185.72" y1="311.40" x2="184.46" y2="311.40" stroke="#8D9C97" stroke-width="1.0" stroke-linecap="butt" opacity="1.00"/>
<path d="M 184.46,311.40 L 188.66,309.00 L 188.66,313.80 Z" fill="#8D9C97" stroke="none" stroke-width="0.6" stroke-linecap="round" stroke-linejoin="round" opacity="1.00"/>
<text x="126.00" y="324.30" font-size="7.0" fill="#3A4A51" text-anchor="end" xml:space="preserve">Autism spectrum (F84)</text>
<circle cx="193.44" cy="321.80" r="2.00" fill="#EEF3F1" opacity="1.00" stroke="#3A4A51" stroke-width="0.9"/>
<line x1="191.44" y1="321.80" x2="188.52" y2="321.80" stroke="#8D9C97" stroke-width="1.0" stroke-linecap="butt" opacity="1.00"/>
<path d="M 188.52,321.80 L 192.72,319.40 L 192.72,324.20 Z" fill="#8D9C97" stroke="none" stroke-width="0.6" stroke-linecap="round" stroke-linejoin="round" opacity="1.00"/>
<text x="126.00" y="334.70" font-size="7.0" fill="#3A4A51" text-anchor="end" xml:space="preserve">Autism</text>
<circle cx="187.10" cy="332.20" r="2.00" fill="#EEF3F1" opacity="1.00" stroke="#3A4A51" stroke-width="0.9"/>
<line x1="185.10" y1="332.20" x2="178.88" y2="332.20" stroke="#8D9C97" stroke-width="1.0" stroke-linecap="butt" opacity="1.00"/>
<path d="M 178.88,332.20 L 183.08,329.80 L 183.08,334.60 Z" fill="#8D9C97" stroke="none" stroke-width="0.6" stroke-linecap="round" stroke-linejoin="round" opacity="1.00"/>
<text x="126.00" y="345.10" font-size="7.0" fill="#3A4A51" text-anchor="end" xml:space="preserve">Autism (F84.0, F84.5)</text>
<circle cx="197.02" cy="342.60" r="2.00" fill="#EEF3F1" opacity="1.00" stroke="#3A4A51" stroke-width="0.9"/>
<line x1="195.02" y1="342.60" x2="175.13" y2="342.60" stroke="#8D9C97" stroke-width="1.0" stroke-linecap="butt" opacity="1.00"/>
<path d="M 175.13,342.60 L 179.33,340.20 L 179.33,345.00 Z" fill="#8D9C97" stroke="none" stroke-width="0.6" stroke-linecap="round" stroke-linejoin="round" opacity="1.00"/>
<text x="126.00" y="355.50" font-size="7.0" fill="#3A4A51" text-anchor="end" xml:space="preserve">Status epilepticus</text>
<circle cx="183.14" cy="353.00" r="2.00" fill="#EEF3F1" opacity="1.00" stroke="#3A4A51" stroke-width="0.9"/>
<line x1="181.14" y1="353.00" x2="158.99" y2="353.00" stroke="#8D9C97" stroke-width="1.0" stroke-linecap="butt" opacity="1.00"/>
<path d="M 158.99,353.00 L 163.19,350.60 L 163.19,355.40 Z" fill="#8D9C97" stroke="none" stroke-width="0.6" stroke-linecap="round" stroke-linejoin="round" opacity="1.00"/>
<line x1="132.00" y1="362.40" x2="244.00" y2="362.40" stroke="#A9B8B2" stroke-width="0.5" stroke-linecap="butt" opacity="1.00"/>
<line x1="143.20" y1="362.40" x2="143.20" y2="364.90" stroke="#A9B8B2" stroke-width="0.5" stroke-linecap="butt" opacity="1.00"/>
<text x="143.20" y="372.90" font-size="7.0" fill="#5E6E72" text-anchor="middle" xml:space="preserve">0</text>
<line x1="199.20" y1="362.40" x2="199.20" y2="364.90" stroke="#A9B8B2" stroke-width="0.5" stroke-linecap="butt" opacity="1.00"/>
<text x="199.20" y="372.90" font-size="7.0" fill="#5E6E72" text-anchor="middle" xml:space="preserve">0.5</text>
<text x="127.00" y="382.40" font-size="7.0" fill="#5E6E72" text-anchor="middle" xml:space="preserve">genetic correlation with depression</text>
</svg>
